<svg xmlns="http://www.w3.org/2000/svg" width="29" height="26"><path d="M6.678 9h1.395a8.265 8.265 0 0 1 3.071-2.249 8.04 8.04 0 0 1 3.202-.645c1.138 0 2.209.215 3.212.645a8.296 8.296 0 0 1 2.626 1.767 8.296 8.296 0 0 1 1.767 2.627 8.067 8.067 0 0 1 .645 3.211v1.418l-2.353-2.363a.534.534 0 0 0-.392-.161.534.534 0 0 0-.392.161.534.534 0 0 0-.161.392c0 .154.053.285.16.392l3.299 3.298c.057.05.12.09.188.118a.51.51 0 0 0 .408 0 .692.692 0 0 0 .188-.118l3.298-3.298a.534.534 0 0 0 .16-.392.534.534 0 0 0-.16-.392.527.527 0 0 0-.387-.161.53.53 0 0 0-.387.161l-2.363 2.363v-1.418c0-.63-.06-1.244-.183-1.842a9.756 9.756 0 0 0-.526-1.74 8.973 8.973 0 0 0-.854-1.606 9.447 9.447 0 0 0-1.176-1.429 9.447 9.447 0 0 0-1.429-1.176 8.973 8.973 0 0 0-1.606-.854 9.756 9.756 0 0 0-1.74-.526A9.212 9.212 0 0 0 14.346 5c-.623 0-1.236.06-1.837.183a9.58 9.58 0 0 0-1.74.526 9.05 9.05 0 0 0-1.601.854 9.41 9.41 0 0 0-1.429 1.176A9.485 9.485 0 0 0 6.678 9zM5.26 19.394a.202.202 0 0 1-.16-.068.255.255 0 0 1-.06-.175v-5.957l-1.68 1.362a.22.22 0 0 1-.15.064c-.06 0-.117-.035-.17-.106l-.24-.327a.263.263 0 0 1-.05-.148c0-.078.033-.141.1-.19l2.17-1.775A.455.455 0 0 1 5.28 12h.47c.067 0 .122.023.165.069a.243.243 0 0 1 .065.174v6.908c0 .07-.022.129-.065.175a.217.217 0 0 1-.165.068h-.49zm4.4.106c-.5 0-.933-.095-1.3-.285a2.116 2.116 0 0 1-.84-.745 1.96 1.96 0 0 1-.31-.988v-.02c0-.057.02-.103.06-.138a.205.205 0 0 1 .14-.053h.49c.14 0 .23.078.27.233.1.38.285.663.555.85.27.186.582.28.935.28.453 0 .83-.146 1.13-.439.3-.292.45-.695.45-1.21 0-.47-.15-.846-.45-1.124-.3-.278-.677-.417-1.13-.417-.24 0-.433.031-.58.095a2.08 2.08 0 0 0-.45.274 1.71 1.71 0 0 1-.215.154.373.373 0 0 1-.185.047h-.48a.222.222 0 0 1-.16-.069.191.191 0 0 1-.06-.163l.31-3.518c.02-.176.103-.264.25-.264h3.46c.073 0 .13.021.17.063.04.043.06.102.06.18v.39a.228.228 0 0 1-.065.17.227.227 0 0 1-.165.063H8.67l-.18 2.123c.32-.239.75-.359 1.29-.359.447 0 .853.094 1.22.28.367.187.658.46.875.819.217.359.325.785.325 1.278 0 .521-.108.97-.325 1.347a2.123 2.123 0 0 1-.9.856c-.383.193-.822.29-1.315.29z" fill="#FFF" fill-rule="evenodd"/></svg>