<svg xmlns="http://www.w3.org/2000/svg" width="36" height="36"><path fill="#FFF" fill-rule="evenodd" d="M18 36C8.059 36 0 27.941 0 18S8.059 0 18 0s18 8.059 18 18-8.059 18-18 18zm0-27.5a9.5 9.5 0 1 0 9.5 9.5A9.51 9.51 0 0 0 18 8.5zm-.66 1.44v3H15c.58-1.55 1.36-2.66 2.34-3zm1.32 0c1 .34 1.76 1.45 2.3 3h-2.3v-3zm-3.72.48a10.14 10.14 0 0 0-1.23 2.49H11.6a8.11 8.11 0 0 1 3.34-2.49zm6.12 0a8.11 8.11 0 0 1 3.34 2.49h-2.11a10.14 10.14 0 0 0-1.23-2.49zm-10.32 3.82h2.59a16.6 16.6 0 0 0-.4 3.09H9.85a8.25 8.25 0 0 1 .89-3.09zm3.91 0h2.69v3.09h-3.08a16.62 16.62 0 0 1 .39-3.09zm4 0h2.69a16.62 16.62 0 0 1 .39 3.09h-3.07l-.01-3.09zm4 0h2.59a8.25 8.25 0 0 1 .89 3.09h-3.06a16.6 16.6 0 0 0-.4-3.09h-.02zm-12.8 4.42h3.08a16.6 16.6 0 0 0 .4 3.09h-2.59a8.12 8.12 0 0 1-.89-3.09zm4.41 0h3.08v3.09h-2.69a16.73 16.73 0 0 1-.39-3.09zm4.4 0h3.08a16.73 16.73 0 0 1-.39 3.09h-2.69v-3.09zm4.41 0h3.08a8.12 8.12 0 0 1-.89 3.09h-2.59a16.6 16.6 0 0 0 .4-3.09zm-11.48 4.41h2.12a9.47 9.47 0 0 0 1.23 2.51 8.16 8.16 0 0 1-3.35-2.51zm3.44 0h2.31v3a4.58 4.58 0 0 1-2.34-3h.03zm3.63 0H21a4.58 4.58 0 0 1-2.31 3l-.03-3zm3.63 0h2.12a8.16 8.16 0 0 1-3.35 2.51 9.47 9.47 0 0 0 1.23-2.51z"/></svg>