<svg xmlns="http://www.w3.org/2000/svg" width="36" height="36"><path fill="#FFF" fill-rule="evenodd" d="M18 36C8.059 36 0 27.941 0 18S8.059 0 18 0s18 8.059 18 18-8.059 18-18 18zm8.53-22.46a6.74 6.74 0 0 1-2 .55 3.47 3.47 0 0 0 1.53-1.93 7 7 0 0 1-2.22.85 3.49 3.49 0 0 0-6 2.39c0 .27.03.538.09.8a9.94 9.94 0 0 1-7.21-3.66 3.51 3.51 0 0 0 1.08 4.67 3.51 3.51 0 0 1-1.58-.43A3.5 3.5 0 0 0 13 20.25a3.57 3.57 0 0 1-1.57.06 3.48 3.48 0 0 0 3.26 2.42 7 7 0 0 1-5.17 1.45 9.94 9.94 0 0 0 15.3-8.37v-.46a6.81 6.81 0 0 0 1.74-1.81h-.03z"/></svg>