<svg xmlns="http://www.w3.org/2000/svg" width="200" height="38" viewBox="0 0 200 38">
  <g fill="none" fill-rule="evenodd">
    <path fill="#FFF" d="M55.59 28.2798c-.5055 0-.9011-.3965-.9011-.904v-14.163l-5.3272 7.4129c-.1524.246-.4349.4021-.7446.4021-.3988 0-.6612-.14-.8337-.4166l-5.3167-7.375v14.1395c0 .4899-.4132.9041-.9019.9041-.511 0-.9267-.4054-.9267-.904V10.474c0-.2397.0946-.4641.26-.6258v-.0225l.1532-.1126c.1805-.119.3579-.1706.5392-.1706.2993 0 .5705.1376.7446.3773l6.2547 8.687 6.229-8.6862c.1469-.2317.4261-.378.7383-.378a.963.963 0 0 1 .52.1495l.0256.017.0217.0209c.0938.0949.154.1576.2166.251.1067.2098.1509.361.1509.493v16.9017c0 .4899-.4133.9041-.902.9041"/>
    <path fill="#FFF" d="M54.9655 12.3523l-5.8287 8.1118c-.13.2092-.3378.2864-.52.2864h-.052c-.2344 0-.4165-.0772-.5465-.2864l-5.8286-8.086v14.9978c0 .3394-.2865.6258-.6243.6258-.3643 0-.6507-.2864-.6507-.6258V10.4741c0-.2083.1043-.3909.26-.4954 0-.0258.0264-.0258.052-.0523.2865-.1826.6765-.1303.8843.1568l6.4802 8.9983 6.4529-8.9983c.1813-.2871.5978-.3394.8842-.1568.0779.0788.13.1303.1822.2083.0521.1054.1043.2357.1043.3394V27.376c0 .3394-.2865.6258-.625.6258-.3644 0-.6243-.2864-.6243-.6258V12.3523zm13.1674-1.287c-4.0617 0-7.2432 3.3726-7.2432 7.6775 0 4.2485 3.2489 7.704 7.2432 7.704 3.9117 0 7.114-3.4563 7.139-7.7057-.0241-4.2308-3.2273-7.6758-7.139-7.6758m0 17.2146c-5.06 0-9.0446-4.189-9.072-9.5355.0274-5.3498 4.012-9.5388 9.072-9.5388 5.0158 0 8.966 4.189 8.9933 9.5355-.0273 5.3498-3.9775 9.5388-8.9933 9.5388"/>
    <path fill="#FFF" d="M68.133 26.7237c4.007 0 7.3892-3.5214 7.4157-7.9807-.0265-4.5124-3.4086-7.955-7.4158-7.955-4.1372 0-7.52 3.4426-7.52 7.955 0 4.4593 3.3828 7.9807 7.52 7.9807m0-17.2412c4.8658 0 8.6908 4.148 8.7165 9.2605-.0257 5.1124-3.8507 9.2588-8.7165 9.2588-4.9179 0-8.7686-4.1464-8.795-9.2588.0264-5.1124 3.8771-9.2605 8.795-9.2605m18.085 18.7973c-.1027 0-.1974-.0024-.2809-.0257h-.2303l-.0096-.1223c-.1252-.0772-.2207-.1874-.2824-.3265a.2775.2775 0 0 1-.0562-.107l-.02-.0322-7.0515-16.8237c-.1918-.4593.032-1.0079.487-1.1977.1027-.0523.2319-.0829.3675-.0829.3587 0 .6909.2188.8265.5454l6.2507 14.936 6.2755-14.9368c.1027-.3129.435-.5446.8008-.5446.1348 0 .264.0306.3844.0901.199.0829.3763.2655.4678.4939.0914.226.0922.4802.0016.6966l-7.037 16.6596c-.0506.3322-.2536.6009-.5369.7078l-.0465.0177h-.0321c-.0794.0266-.175.0523-.2784.0523"/>
    <path fill="#FFF" d="M85.6454 27.6365c-.0256 0-.0256-.0257-.0256-.0515l-.0265-.0265-7.0515-16.8238c-.13-.312.0265-.7038.3386-.834.3121-.157.7021 0 .832.3128l6.5051 15.5449L92.75 10.2135c.1035-.3129.4934-.4697.8056-.3129.313.1303.4686.522.3386.8341l-7.0515 16.6935c-.0265.234-.1565.4432-.3643.522h-.0265c-.0778.0257-.1556.0515-.2343.0515-.0778 0-.1821 0-.2335-.0258-.0264 0-.0264-.0257-.0264-.0257-.1557-.0523-.26-.1568-.3122-.3137m11.4765.6433c-.4887 0-.9019-.4142-.9019-.904V10.3701c0-.4898.4132-.904.9019-.904.5111 0 .9268.4053.9268.904v17.0055c0 .4987-.4157.9041-.9268.9041"/>
    <path fill="#FFF" d="M96.4974 10.3701c0-.3394.2857-.6266.6243-.6266.3643 0 .6507.2872.6507.6266v17.0056c0 .3394-.2864.6257-.6507.6257-.3386 0-.6243-.2863-.6243-.6257V10.37zm19.307 17.9097c-.5056 0-.9012-.3965-.9012-.904v-14.163l-5.3271 7.4129c-.1533.246-.4357.4021-.7454.4021-.3972 0-.6604-.14-.833-.4158l-5.3174-7.3759v14.1396c0 .4899-.4124.9041-.9011.9041-.512 0-.9276-.4054-.9276-.904V10.474a.8758.8758 0 0 1 .26-.6258v-.0233l.1549-.1118c.1797-.1183.357-.1706.5384-.1706.2993 0 .5705.1376.7446.3773l6.2547 8.687 6.229-8.6862c.1469-.2317.426-.378.7382-.378a.9673.9673 0 0 1 .5192.1495l.0257.017.0216.0209c.0939.094.1549.1576.2175.251.1067.2115.1508.3627.1508.493v16.9017c0 .4899-.4132.9041-.9019.9041"/>
    <path fill="#FFF" d="M115.1798 12.3523l-5.8286 8.1118c-.13.2092-.3386.2864-.5208.2864h-.0521c-.2335 0-.4157-.0772-.5465-.2864l-5.8278-8.086v14.9978c0 .3394-.2864.6258-.625.6258-.3635 0-.65-.2864-.65-.6258V10.4741c0-.2083.1043-.3909.26-.4954 0-.0258.0265-.0258.0521-.0523.2857-.1826.6765-.1303.8843.1568l6.4794 8.9983 6.4528-8.9983c.1822-.2871.5986-.3394.8851-.1568.0778.0788.13.1303.1821.2083.0514.1054.1044.2357.1044.3394V27.376c0 .3394-.2865.6258-.6251.6258-.3643 0-.6243-.2864-.6243-.6258V12.3523zm5.5992 15.926c-.471-.0387-.8264-.4264-.8264-.9026V10.3702c0-.4898.4124-.904.901-.904h9.368c.5048 0 .9012.3965.9012.904 0 .53-.3884.9298-.9011.9298h-8.4405v6.6697h7.3468c.4967 0 .901.4166.901.929 0 .4899-.4115.9041-.901.9041h-7.3468v6.644h8.4405c.5127 0 .901.3997.901.929 0 .5075-.3963.904-.901.904l-9.4427-.0016z"/>
    <path fill="#FFF" d="M120.2297 10.3701c0-.3394.2857-.6266.6235-.6266h9.368c.3643 0 .6243.2872.6243.6266 0 .3652-.26.6524-.6243.6524h-8.7165v7.2246h7.6236c.3386 0 .6243.2872.6243.6523 0 .3387-.2857.625-.6243.625h-7.6236v7.1997h8.7165c.3643 0 .6243.2864.6243.6516 0 .3394-.26.6257-.6243.6257h-9.4194a.6243.6243 0 0 1-.572-.6257V10.37zm26.7229 17.9097c-.284 0-.5224-.1134-.707-.3346-.0224-.0112-.093-.0651-.1396-.1592l-10.4039-14.4952v14.085c0 .4898-.4124.904-.901.904-.4887 0-.9012-.4142-.9012-.904v-16.708c-.0922-.3643.033-.7207.341-.9604.175-.1134.3555-.1649.5417-.1649.3121 0 .5906.1464.7462.3918l10.5227 14.627V10.552c0-.489.4124-.9033.901-.9033.512 0 .9276.4054.9276.9033v16.8237c0 .4987-.4156.9041-.9275.9041"/>
    <path fill="#FFF" d="M135.426 12.4305V27.376c0 .3386-.2857.6257-.6243.6257-.3386 0-.625-.2871-.625-.6257V10.631c-.078-.2614 0-.522.2342-.7046.2865-.1826.703-.1303.8843.1569l11.033 15.3365V10.5523c0-.3386.2864-.6258.6242-.6258.3643 0 .6516.2872.6516.6258v16.8238c0 .3386-.2873.6257-.6516.6257-.2086 0-.3643-.078-.4943-.234-.0256-.0258-.0778-.0531-.1035-.1054l-10.9287-15.232zm22.2477 15.8493c-.4879 0-.9011-.4142-.9011-.904V11.3h-5.2132c-.4967 0-.9011-.4174-.9011-.9298 0-.4898.4124-.904.901-.904h12.2295c.4886 0 .9018.4142.9018.904 0 .5124-.4044.9298-.9018.9298h-5.2132v16.0757c0 .4899-.4133.9041-.902.9041"/>
    <path fill="#FFF" d="M157.05 11.022h-5.4909c-.3386 0-.6242-.287-.6242-.6523 0-.3386.2856-.6258.6242-.6258h12.2294c.3386 0 .625.2872.625.6258 0 .3652-.2864.6524-.625.6524h-5.49v16.354c0 .3386-.2865.6257-.625.6257-.3379 0-.6235-.2871-.6235-.6257V11.022zm17.1481.0433c-4.0617 0-7.2432 3.3726-7.2432 7.6775 0 4.2485 3.2489 7.704 7.2432 7.704 3.9117 0 7.114-3.4563 7.1382-7.7057-.0241-4.2308-3.2265-7.6758-7.1382-7.6758m0 17.2146c-5.06 0-9.0446-4.189-9.072-9.5355.0274-5.3498 4.012-9.5388 9.072-9.5388 5.0158 0 8.9668 4.189 8.9933 9.5355-.0265 5.3498-3.9775 9.5388-8.9933 9.5388"/>
    <path fill="#FFF" d="M174.1981 26.7237c4.0064 0 7.3901-3.5214 7.4158-7.9807-.0257-4.5124-3.4094-7.955-7.4158-7.955-4.1372 0-7.52 3.4426-7.52 7.955 0 4.4593 3.3828 7.9807 7.52 7.9807m0-17.2412c4.865 0 8.6908 4.148 8.7165 9.2605-.0257 5.1124-3.8515 9.2588-8.7165 9.2588-4.9187 0-8.7694-4.1464-8.795-9.2588.0256-5.1124 3.8763-9.2605 8.795-9.2605m12.1731.2557c-2.0501 0-3.6798-1.6594-3.6798-3.688V1.5065c0-.3958.3057-.7022.7005-.7022.382 0 .7126.3064.7126.7022v4.5437c0 1.2508 1.0182 2.2707 2.2667 2.2707 1.2598 0 2.266-1.02 2.266-2.2707V1.5065c0-.3958.3186-.7022.7133-.7022.3948 0 .6997.3064.6997.7022v4.5437c0 2.0286-1.6425 3.688-3.679 3.688"/>
    <path d="M192.102.901h6.815v8.838h-6.815z"/>
    <path fill="#FFF" d="M198.786 2.0173l-2.4192 3.293 2.4192 3.318c.2167.3064.1653.7528-.1532.97-.1276.0893-.2664.1407-.4068.1407-.2295 0-.4333-.115-.5737-.2943l-2.1384-2.948-2.152 2.948c-.1397.1793-.3435.2943-.5601.2943a.6608.6608 0 0 1-.4077-.1407c-.3177-.2172-.3811-.6636-.1653-.97l2.4193-3.318-2.4193-3.293c-.2158-.3193-.1524-.7529.1653-.97.3058-.2421.7519-.1786.9677.1528l2.152 2.9359 2.1385-2.936c.2423-.3313.662-.3948.9805-.1527.3185.2171.3699.6507.1532.97M26.4094 1.5117c-.215 0-.3828.0523-.561.1448-.2158.1118-.4252.2823-.568.4906l-4.7277 5.6667c.4694.0538.917.2429 1.2814.5493.3482.2928.6122.67.751 1.0915l2.4626-2.9262v14.4501c.5103-.242.8184-.3837 1.2967-.3837.479 0 .7863.1416 1.2974.3837V2.814c0-.7192-.515-1.3023-1.2324-1.3023M2.5536 20.9786V6.3009l2.7282 3.2495c.1308-.4609.3988-.8719.7735-1.1872.3386-.2847.751-.4681 1.1835-.5357l-4.8135-5.751c-.1453-.2277-.3571-.4022-.6227-.494-.1324-.045-.3137-.0707-.4614-.0707C.624 1.5118.002 2.094.002 2.814v18.1646c.4678-.2421.7976-.3845 1.2758-.3845.479 0 .9781.1424 1.2758.3845"/>
    <path d="M0 21.712h27.637v15.163H0z"/>
    <path fill="#FFF" d="M26.2926 21.7118c-.7005.0169-1.2453.5928-1.2453 1.3014v.058c0 6.207-4.9308 11.2535-11.1229 11.2535h-.2134c-6.1913 0-11.1574-5.0464-11.1574-11.2536v-.0579c0-.7086-.5295-1.2845-1.23-1.3014-.6556.016-1.3272.5164-1.324 1.3014 0 7.6349 6.2058 13.8485 13.8197 13.8613 7.614-.0128 13.8181-6.2264 13.8181-13.8613-.0353-.909-.6932-1.3079-1.3448-1.3014"/>
    <path fill="#FFF" d="M6.242 10.7955l5.8936 7.1024-5.7299 6.8796c-.4646.559-.3883 1.3899.1701 1.8548.5577.4665 1.3866.39 1.8512-.1697l5.4081-6.5169 5.4082 6.5169c.4638.5598 1.2927.6362 1.8511.1697.5577-.465.634-1.2958.1693-1.8548l-5.729-6.8796 5.8927-7.1024c.2696-.5357.1469-1.205-.333-1.6047a1.3102 1.3102 0 0 0-.8449-.3048 1.3133 1.3133 0 0 0-1.0054.4753l-5.409 6.4951-5.409-6.495a1.3146 1.3146 0 0 0-1.0054-.4754 1.3108 1.3108 0 0 0-.8457.3048c-.4798.3998-.6018 1.069-.333 1.6047"/>
  </g>
</svg>
