<svg xmlns="http://www.w3.org/2000/svg" width="200" height="38" viewBox="0 0 200 38">
  <g fill="none" fill-rule="evenodd">
    <path fill="#FFFFFF" d="M55.5899684,28.2798239 C55.084457,28.2798239 54.6888742,27.8832804 54.6888742,27.375737 L54.6888742,13.2127804 L49.3617466,20.62565 C49.2092908,20.8717804 48.9268463,21.0278239 48.6171203,21.0278239 C48.2183279,21.0278239 47.9559434,20.8878674 47.7834276,20.6111717 L42.4667312,13.2361065 L42.4667312,27.375737 C42.4667312,27.8655848 42.0534957,28.2798239 41.5648347,28.2798239 C41.0537064,28.2798239 40.6380637,27.8744326 40.6380637,27.375737 L40.6380637,10.4739761 C40.6380637,10.2342804 40.7327468,10.0098674 40.898041,9.84819348 L40.898041,9.82567174 L41.0512992,9.71306304 C41.231839,9.59401957 41.4091692,9.5425413 41.5905114,9.5425413 C41.8898063,9.5425413 42.1610172,9.68008478 42.3351378,9.91978043 L48.5898387,18.606737 L54.8188629,9.92058478 C54.9657019,9.68893261 55.2449368,9.5425413 55.55707,9.5425413 C55.7432266,9.5425413 55.9237664,9.59401957 56.0770246,9.69215 L56.1027014,9.7090413 L56.1243662,9.72995435 C56.2182469,9.82486739 56.2784268,9.88760652 56.3410139,9.98091087 C56.447733,10.1908457 56.491865,10.342063 56.491865,10.4739761 L56.491865,27.375737 C56.491865,27.8655848 56.0786294,28.2798239 55.5899684,28.2798239"/>
    <path fill="#FFFFFF" d="M54.9654612 12.3522891L49.1368342 20.464137C49.0068455 20.6732674 48.7990242 20.7504848 48.6168796 20.7504848L48.5647236 20.7504848C48.3304231 20.7504848 48.1482785 20.6732674 48.0182898 20.464137L42.1896628 12.3780283 42.1896628 27.3758978C42.1896628 27.7153326 41.9032064 28.0016804 41.5653963 28.0016804 41.2011071 28.0016804 40.9146507 27.7153326 40.9146507 27.3758978L40.9146507 10.474137C40.9146507 10.2658109 41.0189626 10.0832239 41.174628 9.9786587 41.174628 9.95291957 41.2011071 9.95291957 41.2267839 9.92637609 41.5132404 9.74378913 41.9032064 9.79607174 42.1110277 10.0832239L48.5912028 19.081463 55.0440963 10.0832239C55.2254385 9.79607174 55.6418836 9.74378913 55.9283401 9.92637609 56.0061728 10.0052022 56.0583287 10.0566804 56.1104847 10.1347022 56.1626406 10.2400717 56.2147966 10.3703761 56.2147966 10.474137L56.2147966 27.3758978C56.2147966 27.7153326 55.9283401 28.0016804 55.5897277 28.0016804 55.2254385 28.0016804 54.9654612 27.7153326 54.9654612 27.3758978L54.9654612 12.3522891zM68.1329105 11.0652522C64.0711663 11.0652522 60.8896539 14.4378826 60.8896539 18.7427522 60.8896539 22.9913174 64.1385678 26.4467957 68.1329105 26.4467957 72.0446061 26.4467957 75.2469809 22.990513 75.2718552 18.7411435 75.2477833 14.5102739 72.0446061 11.0652522 68.1329105 11.0652522M68.1329105 28.2799043C63.0729818 28.2799043 59.088268 24.0908609 59.0609864 18.7443609 59.088268 13.3946435 63.0729818 9.2056 68.1329105 9.2056 73.1487072 9.2056 77.098918 13.3946435 77.1261995 18.7411435 77.098918 24.0908609 73.1487072 28.2799043 68.1329105 28.2799043"/>
    <path fill="#FFFFFF" d="M68.1329105 26.7237326C72.1400916 26.7237326 75.5222038 23.2022978 75.5486829 18.7429935 75.5222038 14.2306022 72.1400916 10.7879935 68.1329105 10.7879935 63.9957408 10.7879935 60.6128262 14.2306022 60.6128262 18.7429935 60.6128262 23.2022978 63.9957408 26.7237326 68.1329105 26.7237326M68.1329105 9.48253696C72.9986586 9.48253696 76.8236951 13.6305587 76.8493719 18.7429935 76.8236951 23.8554283 72.9986586 28.0018413 68.1329105 28.0018413 63.2150065 28.0018413 59.3642932 23.8554283 59.3378141 18.7429935 59.3642932 13.6305587 63.2150065 9.48253696 68.1329105 9.48253696M86.2178627 28.2798239C86.1151556 28.2798239 86.0204725 28.2774109 85.937023 28.2540848L85.7067345 28.2540848 85.6971057 28.1318239C85.5719314 28.0546065 85.4764459 27.9444109 85.4146612 27.8052587 85.3897868 27.7763022 85.3705293 27.7409109 85.3584933 27.6982804L85.3384333 27.6661065 78.2869501 10.8423674C78.0951767 10.3830848 78.319046 9.83451957 78.7740063 9.64469348 78.8767134 9.59241087 79.0058997 9.56184565 79.1415051 9.56184565 79.5001775 9.56184565 79.8323707 9.78062826 79.9679762 10.1071935L86.2186651 25.0431283 92.4942284 10.1063891C92.5969355 9.79349783 92.9291287 9.56184565 93.2950227 9.56184565 93.4298257 9.56184565 93.559012 9.59241087 93.6793719 9.65193261 93.8783668 9.73478043 94.055697 9.91736739 94.1471705 10.1458022 94.238644 10.3718239 94.2394464 10.6259978 94.1487753 10.8423674L87.1117353 27.5020196C87.0611841 27.8342152 86.8581772 28.1028674 86.5749303 28.2098457L86.5283911 28.2275413 86.4962952 28.2275413C86.4168577 28.2540848 86.3213722 28.2798239 86.2178627 28.2798239"/>
    <path fill="#FFFFFF" d="M85.6454312 27.6365065C85.6197544 27.6365065 85.6197544 27.6107674 85.6197544 27.5850283L85.5932752 27.5584848 78.541792 10.7347457C78.4118034 10.4226587 78.5682712 10.0309413 78.8804044 9.90063696 79.1925377 9.74378913 79.5825036 9.90063696 79.7124923 10.2135283L86.2175417 25.7583543 92.7498728 10.2135283C92.8533822 9.90063696 93.2433482 9.74378913 93.5554814 9.90063696 93.8684171 10.0309413 94.0240825 10.4226587 93.8940939 10.7347457L86.8426106 27.4281804C86.8161315 27.6622457 86.6861428 27.8713761 86.4783214 27.9502022L86.4518423 27.9502022C86.3740096 27.9759413 86.2961769 28.0016804 86.2175417 28.0016804 86.139709 28.0016804 86.0353971 28.0016804 85.9840436 27.9759413 85.9575644 27.9759413 85.9575644 27.9502022 85.9575644 27.9502022 85.801899 27.8979196 85.6975871 27.7933543 85.6454312 27.6365065M97.1219047 28.2798239C96.6332436 28.2798239 96.2200081 27.8655848 96.2200081 27.375737L96.2200081 10.3702152C96.2200081 9.88036739 96.6332436 9.46612826 97.1219047 9.46612826 97.6330329 9.46612826 98.0486756 9.87151957 98.0486756 10.3702152L98.0486756 27.375737C98.0486756 27.8744326 97.6330329 28.2798239 97.1219047 28.2798239"/>
    <path fill="#FFFFFF" d="M96.4973975 10.3701348C96.4973975 10.0307 96.7830515 9.74354783 97.121664 9.74354783 97.4859532 9.74354783 97.7724096 10.0307 97.7724096 10.3701348L97.7724096 27.3756565C97.7724096 27.7150913 97.4859532 28.0014391 97.121664 28.0014391 96.7830515 28.0014391 96.4973975 27.7150913 96.4973975 27.3756565L96.4973975 10.3701348zM115.804323 28.2798239C115.298812 28.2798239 114.903229 27.8832804 114.903229 27.375737L114.903229 13.2127804 109.576101 20.62565C109.422843 20.8717804 109.140399 21.0278239 108.830673 21.0278239 108.433485 21.0278239 108.170298 20.8878674 107.997782 20.6119761L102.680284 13.2361065 102.680284 27.375737C102.680284 27.8655848 102.267851 28.2798239 101.779189 28.2798239 101.267259 28.2798239 100.851616 27.8744326 100.851616 27.375737L100.851616 10.4739761C100.851616 10.2342804 100.947102 10.0098674 101.111593 9.84819348L101.111593 9.82486739 101.266456 9.71306304C101.446194 9.59482391 101.623524 9.5425413 101.804866 9.5425413 102.104161 9.5425413 102.375372 9.68008478 102.549493 9.91978043L108.804194 18.606737 115.033218 9.92058478C115.180057 9.68893261 115.459292 9.5425413 115.771425 9.5425413 115.957581 9.5425413 116.137319 9.59482391 116.290577 9.69215L116.316254 9.7090413 116.337919 9.72995435C116.431799 9.82406304 116.492782 9.88760652 116.555369 9.98091087 116.662088 10.1924543 116.70622 10.3436717 116.70622 10.4739761L116.70622 27.375737C116.70622 27.8655848 116.292984 28.2798239 115.804323 28.2798239"/>
    <path fill="#FFFFFF" d="M115.179816 12.3522891L109.351189 20.464137C109.2212 20.6732674 109.012577 20.7504848 108.830432 20.7504848L108.778276 20.7504848C108.544778 20.7504848 108.362633 20.6732674 108.231842 20.464137L102.404018 12.3780283 102.404018 27.3758978C102.404018 27.7153326 102.117561 28.0016804 101.778949 28.0016804 101.415462 28.0016804 101.129006 27.7153326 101.129006 27.3758978L101.129006 10.474137C101.129006 10.2658109 101.233317 10.0832239 101.388983 9.9786587 101.388983 9.95291957 101.415462 9.95291957 101.441139 9.92637609 101.726793 9.74378913 102.117561 9.79607174 102.325383 10.0832239L108.804755 19.081463 115.257649 10.0832239C115.439793 9.79607174 115.856238 9.74378913 116.142695 9.92637609 116.220528 10.0052022 116.272684 10.0566804 116.32484 10.1347022 116.376193 10.2400717 116.429151 10.3703761 116.429151 10.474137L116.429151 27.3758978C116.429151 27.7153326 116.142695 28.0016804 115.804083 28.0016804 115.439793 28.0016804 115.179816 27.7153326 115.179816 27.3758978L115.179816 12.3522891zM120.779037 28.2782152C120.308029 28.2396065 119.952566 27.8519109 119.952566 27.375737L119.952566 10.3702152C119.952566 9.88036739 120.364999 9.46612826 120.85366 9.46612826L130.22167 9.46612826C130.726379 9.46612826 131.122764 9.86267174 131.122764 10.3702152 131.122764 10.9002804 130.734403 11.3000413 130.22167 11.3000413L121.781234 11.3000413 121.781234 17.9696935 129.128 17.9696935C129.624685 17.9696935 130.029094 18.3863457 130.029094 18.8987152 130.029094 19.388563 129.617463 19.8028022 129.128 19.8028022L121.781234 19.8028022 121.781234 26.4467152 130.22167 26.4467152C130.734403 26.4467152 131.122764 26.8464761 131.122764 27.375737 131.122764 27.8832804 130.726379 28.2798239 130.22167 28.2798239L120.779037 28.2782152z"/>
    <path fill="#FFFFFF" d="M120.229715 10.3701348C120.229715 10.0307 120.515369 9.74354783 120.853179 9.74354783L120.906137 9.74354783 130.221188 9.74354783C130.585477 9.74354783 130.845455 10.0307 130.845455 10.3701348 130.845455 10.7353087 130.585477 11.0224609 130.221188 11.0224609L121.504727 11.0224609 121.504727 18.247113 129.128321 18.247113C129.466933 18.247113 129.752587 18.5342652 129.752587 18.8994391 129.752587 19.2380696 129.466933 19.5244174 129.128321 19.5244174L121.504727 19.5244174 121.504727 26.7241348 130.221188 26.7241348C130.585477 26.7241348 130.845455 27.0104826 130.845455 27.3756565 130.845455 27.7150913 130.585477 28.0014391 130.221188 28.0014391L120.932616 28.0014391 120.853179 28.0014391 120.801825 28.0014391C120.48889 27.9757 120.229715 27.7150913 120.229715 27.3756565L120.229715 10.3701348zM146.952573 28.2798239C146.668524 28.2798239 146.430212 28.1664109 146.24566 27.9452152 146.223193 27.9339543 146.152581 27.880063 146.106042 27.7859543L135.702136 13.2908022 135.702136 27.375737C135.702136 27.8655848 135.289703 28.2798239 134.801041 28.2798239 134.31238 28.2798239 133.899947 27.8655848 133.899947 27.375737L133.899947 10.6678239C133.807671 10.3034543 133.932846 9.94712826 134.240967 9.70743261 134.41589 9.59401957 134.59643 9.5425413 134.782586 9.5425413 135.09472 9.5425413 135.373152 9.68893261 135.528817 9.9342587L146.051479 24.5613239 146.051479 10.5519978C146.051479 10.0629543 146.463912 9.64871522 146.952573 9.64871522 147.464504 9.64871522 147.880147 10.0541065 147.880147 10.5519978L147.880147 27.375737C147.880147 27.8744326 147.464504 28.2798239 146.952573 28.2798239"/>
    <path fill="#FFFFFF" d="M135.42595 12.4304717L135.42595 27.3760587C135.42595 27.7146891 135.140296 28.0018413 134.801683 28.0018413 134.463071 28.0018413 134.176615 27.7146891 134.176615 27.3760587L134.176615 10.6311457C134.098782 10.3697326 134.176615 10.1091239 134.410915 9.92653696 134.697372 9.74395 135.113817 9.79623261 135.295159 10.0833848L146.328146 25.4198848 146.328146 10.5523196C146.328146 10.2136891 146.614603 9.92653696 146.952413 9.92653696 147.316702 9.92653696 147.603961 10.2136891 147.603961 10.5523196L147.603961 27.3760587C147.603961 27.7146891 147.316702 28.0018413 146.952413 28.0018413 146.743789 28.0018413 146.588124 27.9238196 146.458135 27.7677761 146.432458 27.742037 146.380302 27.7146891 146.354626 27.6624065L135.42595 12.4304717zM157.673668 28.2798239C157.18581 28.2798239 156.772574 27.8655848 156.772574 27.375737L156.772574 11.3000413 151.559387 11.3000413C151.062702 11.3000413 150.658293 10.8825848 150.658293 10.3702152 150.658293 9.88036739 151.070726 9.46612826 151.559387 9.46612826L163.788752 9.46612826C164.277413 9.46612826 164.690648 9.88036739 164.690648 10.3702152 164.690648 10.8825848 164.286239 11.3000413 163.788752 11.3000413L158.575565 11.3000413 158.575565 27.375737C158.575565 27.8655848 158.162329 28.2798239 157.673668 28.2798239"/>
    <path fill="#FFFFFF" d="M157.049964 11.0220587L151.559147 11.0220587C151.220534 11.0220587 150.93488 10.7349065 150.93488 10.3697326 150.93488 10.0311022 151.220534 9.74395 151.559147 9.74395L163.788511 9.74395C164.127124 9.74395 164.41358 10.0311022 164.41358 10.3697326 164.41358 10.7349065 164.127124 11.0220587 163.788511 11.0220587L158.298497 11.0220587 158.298497 27.3760587C158.298497 27.7146891 158.01204 28.0018413 157.673428 28.0018413 157.335618 28.0018413 157.049964 27.7146891 157.049964 27.3760587L157.049964 11.0220587zM174.198115 11.0652522C170.136371 11.0652522 166.954858 14.4378826 166.954858 18.7427522 166.954858 22.9913174 170.203772 26.4467957 174.198115 26.4467957 178.10981 26.4467957 181.312185 22.990513 181.336257 18.7411435 181.312185 14.5102739 178.10981 11.0652522 174.198115 11.0652522M174.198115 28.2799043C169.138186 28.2799043 165.153472 24.0908609 165.126191 18.7443609 165.153472 13.3946435 169.138186 9.2056 174.198115 9.2056 179.213911 9.2056 183.164925 13.3946435 183.191404 18.7411435 183.164925 24.0908609 179.213911 28.2799043 174.198115 28.2799043"/>
    <path fill="#FFFFFF" d="M174.198115 26.7237326C178.204493 26.7237326 181.58821 23.2022978 181.613887 18.7429935 181.58821 14.2306022 178.204493 10.7879935 174.198115 10.7879935 170.060945 10.7879935 166.67803 14.2306022 166.67803 18.7429935 166.67803 23.2022978 170.060945 26.7237326 174.198115 26.7237326M174.198115 9.48253696C179.06306 9.48253696 182.888899 13.6305587 182.914576 18.7429935 182.888899 23.8554283 179.06306 28.0018413 174.198115 28.0018413 169.279408 28.0018413 165.428695 23.8554283 165.403018 18.7429935 165.428695 13.6305587 169.279408 9.48253696 174.198115 9.48253696M186.371231 9.7381587C184.321101 9.7381587 182.691429 8.07878913 182.691429 6.05022391L182.691429 1.50646304C182.691429 1.11072391 182.997143.804267391 183.391923.804267391 183.773865.804267391 184.104454 1.11072391 184.104454 1.50646304L184.104454 6.05022391C184.104454 7.30098478 185.122698 8.32089783 186.371231 8.32089783 187.630998 8.32089783 188.637206 7.30098478 188.637206 6.05022391L188.637206 1.50646304C188.637206 1.11072391 188.955759.804267391 189.350539.804267391 189.745319.804267391 190.050231 1.11072391 190.050231 1.50646304L190.050231 6.05022391C190.050231 8.07878913 188.40772 9.7381587 186.371231 9.7381587"/>
    <g transform="translate(191.773 .68)">
      <polygon points=".329 .221 7.144 .221 7.144 9.059 .329 9.059"/>
      <path fill="#FFFFFF" d="M7.01304831,1.3373087 L4.59381504,4.6303087 L7.01304831,7.94824348 C7.22969606,8.2547 7.17834252,8.70111304 6.85979008,8.91828696 C6.73220862,9.00756957 6.59339358,9.05904783 6.45297374,9.05904783 C6.2234876,9.05904783 6.01967823,8.94402609 5.87925839,8.76465652 L3.74086481,5.81672174 L1.58883044,8.76465652 C1.449213,8.94402609 1.24540363,9.05904783 1.02875588,9.05904783 C0.876300049,9.05904783 0.736682607,9.00756957 0.621137137,8.91828696 C0.303387097,8.70111304 0.239997568,8.2547 0.455842924,7.94824348 L2.87507619,4.6303087 L0.455842924,1.3373087 C0.239997568,1.01798261 0.303387097,0.58443913 0.621137137,0.367265217 C0.926851191,0.125156522 1.37298509,0.1887 1.58883044,0.520091304 L3.74086481,3.45596087 L5.87925839,0.520091304 C6.12158291,0.1887 6.54123764,0.125156522 6.85979008,0.367265217 C7.17834252,0.58443913 7.22969606,1.01798261 7.01304831,1.3373087"/>
    </g>
    <path fill="#FFFFFF" d="M26.4093613 1.5116913C26.1943184 1.5116913 26.026617 1.56397391 25.8484844 1.65647391 25.632639 1.76827826 25.4232128 1.9388 25.2803858 2.14712609L20.5526503 7.81375652C21.0220538 7.86764783 21.4697925 8.05666957 21.8340817 8.36312609 22.1823229 8.6559087 22.4463122 9.03314783 22.5851272 9.45462609L25.0476901 6.5284087 25.0476901 6.55093043 25.0476901 20.9785174C25.5580159 20.7364087 25.8661371 20.5948435 26.344367 20.5948435 26.8233993 20.5948435 27.1307181 20.7364087 27.6418463 20.9785174L27.6418463 3.44695217 27.6418463 2.81393043C27.6418463 2.09484348 27.1267061 1.5116913 26.4093613 1.5116913M2.55363511 20.9785978L2.55363511 6.68453261 2.55363511 6.3008587 5.28179202 9.55042391C5.41258308 9.08953261 5.68058437 8.67851087 6.05530475 8.36320652 6.39391717 8.07846739 6.8063503 7.89507609 7.23884341 7.82751087L2.42525126 2.07642391C2.28001702 1.84879348 2.06818366 1.67425 1.80258956 1.58255435 1.67019371 1.53751087 1.48885152 1.51177174 1.34121008 1.51177174.623865294 1.51177174.00200599773 2.09411957.00200599773 2.81401087L.00200599773 3.57975.00200599773 20.9785978C.469804669 20.7364891.799590695 20.5941196 1.27782055 20.5941196 1.75685281 20.5941196 2.25594505 20.7364891 2.55363511 20.9785978"/>
    <g transform="translate(0 21.592)">
      <polygon points="0 .12 27.637 .12 27.637 15.283 0 15.283"/>
      <path fill="#FFFFFF" d="M26.2926123,0.119767391 C25.5921178,0.136658696 25.0472889,0.712571739 25.0472889,1.42120217 L25.0472889,1.47911522 C25.0472889,7.68626739 20.1165464,12.7327457 13.9244326,12.7327457 L13.7109945,12.7327457 C7.51968309,12.7327457 2.55363511,7.68626739 2.55363511,1.47911522 L2.55363511,1.42120217 C2.55363511,0.712571739 2.02405171,0.136658696 1.3235573,0.119767391 C0.667997244,0.135854348 -0.00361079592,0.636158696 -0.000401199546,1.42120217 C-0.000401199546,9.05607174 6.20535338,15.2696587 13.8193184,15.2825283 C21.4332834,15.2696587 27.6374331,9.05607174 27.6374331,1.42120217 C27.6021276,0.51228913 26.9441603,0.113332609 26.2926123,0.119767391"/>
    </g>
    <path fill="#FFFFFF" d="M6.24202302,10.7954739 L12.1356444,17.8978652 L6.40571243,24.7774522 C5.94112336,25.3364739 6.01735127,26.1673652 6.57582104,26.6322783 C7.13348841,27.0988 7.96236667,27.022387 8.42695575,26.4625609 L13.8351256,19.9457348 L19.2432955,26.4625609 C19.7070822,27.022387 20.5359604,27.0988 21.0944302,26.6322783 C21.6520976,26.1673652 21.7283255,25.3364739 21.2637364,24.7774522 L15.5346069,17.8978652 L21.4274258,10.7954739 C21.6970319,10.2597783 21.5742649,9.59056087 21.0944302,9.1908 C20.8472913,8.98488696 20.547194,8.88514783 20.249504,8.88595217 C19.8739812,8.88836522 19.5024704,9.05003913 19.2440979,9.36132174 L13.8351256,15.8564304 L8.42615335,9.36132174 C8.16697844,9.05003913 7.79627006,8.88836522 7.42074728,8.88595217 C7.12225482,8.88514783 6.82215756,8.98488696 6.57501864,9.1908 C6.09518398,9.59056087 5.97321932,10.2597783 6.24202302,10.7954739"/>
  </g>
</svg>
