<svg width="197" height="37" xmlns="http://www.w3.org/2000/svg"><path d="M55.312 28.28a.89.89 0 0 1-.897-.904V13.213l-5.3 7.413a.869.869 0 0 1-.74.402c-.398 0-.659-.14-.83-.417l-5.29-7.375v14.14c0 .49-.412.904-.898.904a.914.914 0 0 1-.922-.904V10.474c0-.24.094-.464.259-.626v-.022l.152-.113a.95.95 0 0 1 .537-.17c.297 0 .567.137.74.377l6.224 8.687 6.198-8.687a.86.86 0 0 1 .734-.378.955.955 0 0 1 .518.15l.025.017.022.02c.093.096.153.158.215.252.106.21.15.36.15.493v16.902c0 .49-.41.904-.897.904m29.475 0c-.102 0-.197-.003-.28-.026h-.229l-.01-.122a.718.718 0 0 1-.28-.327.278.278 0 0 1-.056-.107l-.02-.032-7.017-16.824a.929.929 0 0 1 .485-1.197.814.814 0 0 1 .366-.083c.357 0 .687.219.822.545l6.22 14.936 6.244-14.937c.102-.312.433-.544.797-.544a.852.852 0 0 1 .382.09.896.896 0 0 1 .465.494c.091.226.092.48.002.696l-7.002 16.66c-.05.332-.252.6-.534.708l-.046.017h-.032a.87.87 0 0 1-.277.053m10.85 0a.913.913 0 0 1-.898-.904V10.37c0-.49.411-.904.897-.904.509 0 .922.405.922.904v17.006a.914.914 0 0 1-.922.904m18.59 0a.89.89 0 0 1-.897-.904V13.213l-5.3 7.413a.871.871 0 0 1-.742.402c-.396 0-.658-.14-.83-.416l-5.29-7.376v14.14c0 .49-.41.904-.897.904a.914.914 0 0 1-.923-.904V10.474a.878.878 0 0 1 .259-.626v-.023l.154-.112a.95.95 0 0 1 .536-.17.9.9 0 0 1 .74.377l6.224 8.687 6.198-8.686a.86.86 0 0 1 .735-.378.959.959 0 0 1 .516.15l.026.016.021.021c.094.094.154.158.217.251.106.211.15.363.15.493v16.902c0 .49-.411.904-.898.904m4.95-.002a.895.895 0 0 1-.822-.902V10.37c0-.49.41-.904.896-.904h9.322a.89.89 0 0 1 .896.904c0 .53-.386.93-.896.93h-8.399v6.67h7.31c.495 0 .897.416.897.929 0 .49-.41.904-.897.904h-7.31v6.644h8.399c.51 0 .896.4.896.929a.89.89 0 0 1-.896.904l-9.396-.002zm26.043.002a.88.88 0 0 1-.704-.335.385.385 0 0 1-.138-.159l-10.352-14.495v14.085c0 .49-.41.904-.897.904a.912.912 0 0 1-.897-.904V10.668a.907.907 0 0 1 .34-.96.968.968 0 0 1 .539-.165c.31 0 .587.146.742.391l10.47 14.627V10.552c0-.489.41-.903.897-.903.51 0 .923.405.923.903v16.824a.914.914 0 0 1-.923.904m10.667 0a.913.913 0 0 1-.896-.904V11.3h-5.187c-.495 0-.897-.417-.897-.93 0-.49.41-.904.897-.904h12.168c.486 0 .897.414.897.904 0 .513-.402.93-.897.93h-5.187v16.076c0 .49-.411.904-.898.904m16.142-17.42c-4.042 0-7.207 3.372-7.207 7.677 0 4.249 3.232 7.704 7.207 7.704 3.892 0 7.078-3.456 7.102-7.706-.024-4.23-3.21-7.675-7.102-7.675m0 17.214c-5.035 0-9-4.189-9.027-9.535.027-5.35 3.992-9.539 9.027-9.539 4.99 0 8.922 4.189 8.948 9.536-.027 5.35-3.958 9.538-8.948 9.538M67.746 10.86c-4.042 0-7.207 3.372-7.207 7.677 0 4.249 3.232 7.704 7.207 7.704 3.892 0 7.078-3.456 7.102-7.706-.024-4.23-3.21-7.675-7.102-7.675m0 17.214c-5.035 0-9-4.189-9.027-9.535C58.746 13.189 62.711 9 67.746 9c4.99 0 8.922 4.189 8.948 9.536-.026 5.35-3.957 9.538-8.948 9.538M184.439 9.738c-2.04 0-3.661-1.66-3.661-3.688V1.507a.69.69 0 0 1 .697-.703c.38 0 .709.307.709.702V6.05a2.266 2.266 0 0 0 2.255 2.27 2.26 2.26 0 0 0 2.255-2.27V1.507c0-.396.317-.703.71-.703s.696.307.696.702V6.05c0 2.029-1.634 3.688-3.66 3.688m12.352-7.721l-2.407 3.293 2.408 3.318c.215.306.164.753-.153.97a.707.707 0 0 1-.405.14.725.725 0 0 1-.57-.294l-2.128-2.948-2.142 2.948a.717.717 0 0 1-.557.295.655.655 0 0 1-.405-.141.7.7 0 0 1-.165-.97l2.407-3.318-2.407-3.293c-.215-.32-.152-.753.165-.97a.655.655 0 0 1 .962.153l2.142 2.935 2.127-2.935c.241-.332.659-.395.976-.153.317.217.368.65.152.97" fill="#FFF"/><g class="logo-symbol" fill="#FFF"><path d="M26.277 1.512c-.214 0-.38.052-.558.145a1.572 1.572 0 0 0-.565.49L20.45 7.814c.467.054.912.243 1.275.55.346.292.61.67.747 1.09l2.45-2.926v14.45c.508-.242.815-.383 1.29-.383.477 0 .783.141 1.292.384V2.814c0-.72-.513-1.302-1.227-1.302M2.541 20.979V6.3l2.714 3.25a2.412 2.412 0 0 1 1.948-1.724l-4.79-5.75a1.19 1.19 0 0 0-.62-.495 1.546 1.546 0 0 0-.458-.07c-.714 0-1.333.582-1.333 1.302v18.165c.466-.242.794-.385 1.27-.385s.973.142 1.269.385m23.62.733c-.697.017-1.239.593-1.239 1.302v.058c0 6.207-4.906 11.253-11.067 11.253h-.213c-6.16 0-11.101-5.046-11.101-11.253v-.058c0-.709-.527-1.285-1.224-1.302-.652.016-1.32.517-1.317 1.302 0 7.635 6.174 13.848 13.75 13.861 7.576-.013 13.75-6.226 13.75-13.861-.036-.91-.69-1.308-1.339-1.302"/><path d="M6.21 10.796l5.865 7.102-5.701 6.88a1.323 1.323 0 0 0 .169 1.854 1.3 1.3 0 0 0 1.842-.17l5.38-6.516 5.382 6.517a1.3 1.3 0 0 0 1.842.17c.555-.466.63-1.296.168-1.855l-5.7-6.88 5.863-7.103a1.323 1.323 0 0 0-.331-1.604 1.3 1.3 0 0 0-.84-.305 1.304 1.304 0 0 0-1.001.475l-5.382 6.495-5.382-6.495a1.305 1.305 0 0 0-1-.475 1.3 1.3 0 0 0-.842.305 1.324 1.324 0 0 0-.331 1.604"/></g></svg>