<svg xmlns="http://www.w3.org/2000/svg" width="127" height="127" viewBox="0 0 127 127">
  <g fill="none" fill-rule="evenodd">
    <circle cx="63.5" cy="63.5" r="63.5" fill="#FFFFFF"/>
    <g fill="#000000" transform="translate(12 13)">
      <polygon points="47.73 5.214 44.109 5.681 44.537 9.027 48.547 8.521 48.664 9.533 43.447 10.195 42.24 .934 47.263 .272 47.379 1.284 43.564 1.79 43.953 4.708 47.574 4.241"/>
      <path d="M49.8320611 8.05447471C50.3770992 8.40466926 51.1557252 8.71595331 51.9732824 8.71595331 53.219084 8.75486381 53.9587786 8.13229572 53.9587786 7.15953307 53.9977099 6.30350195 53.4916031 5.75875486 52.2458015 5.25291829 50.7274809 4.6692607 49.8320611 3.85214008 49.8709924 2.52918288 49.9099237 1.08949416 51.1557252.0389105058 52.9854962.0778210117 53.9587786.116731518 54.6206107.350194553 55.048855.583657588L54.6984733 1.55642023C54.3870229 1.3618677 53.7641221 1.08949416 52.9465649 1.05058366 51.6618321 1.01167315 51.1557252 1.75097276 51.1557252 2.41245136 51.1167939 3.26848249 51.7007634 3.73540856 52.9465649 4.28015564 54.5038168 4.94163424 55.2824427 5.71984436 55.2435115 7.08171206 55.2045802 8.52140078 54.1145038 9.72762646 51.8954198 9.68871595 51 9.64980545 50.0267176 9.37743191 49.5206107 9.02723735L49.8320611 8.05447471zM62.8351145 10.8171206C62.3679389 10.9338521 61.4335878 10.9727626 60.3435115 10.7392996 57.7740458 10.1945525 56.1389313 8.17120623 56.7618321 5.17509728 57.3458015 2.29571984 59.6816794.778210117 62.5236641 1.3618677 63.6526718 1.59533074 64.3534351 1.9844358 64.6259542 2.21789883L64.1587786 3.11284047C63.7694656 2.80155642 63.1465649 2.49027237 62.4068702 2.33463035 60.2656489 1.90661479 58.5526718 2.95719844 58.0465649 5.36964981 57.5793893 7.62645914 58.5916031 9.29961089 60.810687 9.76653696 61.5503817 9.92217899 62.2900763 9.92217899 62.8351145 9.76653696L62.8351145 10.8171206zM68.5969466 3.307393L66.4167939 8.40466926C65.5992366 10.3501946 66.1053435 11.5175097 67.2343511 11.9844358 68.519084 12.5291829 69.6870229 12.0233463 70.5045802 10.1167315L72.6847328 5.01945525 73.8137405 5.48638132 71.6725191 10.5058366C70.5435115 13.151751 68.6748092 13.618677 66.8061069 12.8404669 65.0541985 12.1011673 64.1587786 10.5058366 65.2877863 7.85992218L67.4679389 2.80155642 68.5969466 3.307393z"/>
      <polygon points="77.668 9.105 75.293 7.51 75.877 6.654 81.639 10.506 81.055 11.362 78.68 9.767 74.047 16.693 73.035 16.031"/>
      <path fill-rule="nonzero" d="M79.2641221 16.9649805L76.5389313 18.4824903 75.6045802 17.6264591 84.2862595 12.9182879 85.3763359 13.8910506 81.3664122 22.9182879 80.4320611 22.0622568 81.6778626 19.2217899 79.2641221 16.9649805zM82.1450382 18.3268482L83.3129771 15.7198444C83.5854962 15.1361868 83.8580153 14.6303502 84.1305344 14.1245136L84.0916031 14.1245136C83.6244275 14.4357977 83.1183206 14.7470817 82.6122137 15.0583658L80.1206107 16.4202335 82.1450382 18.3268482zM89.3473282 18.1712062C89.8145038 18.5992218 90.3984733 19.2607004 90.9045802 19.922179 91.6832061 20.9727626 91.9946565 21.7509728 91.9167939 22.5680934 91.8778626 23.1906615 91.5274809 23.7743191 90.9435115 24.2023346 89.970229 24.9416342 88.8412214 24.8249027 87.9847328 24.2023346L87.9458015 24.2412451C88.1793893 24.9805447 87.9068702 25.7198444 87.2450382 26.459144 86.3885496 27.4708171 85.8045802 28.2101167 85.6099237 28.5603113L84.870229 27.5486381C84.9870229 27.2762646 85.4931298 26.614786 86.2717557 25.7198444 87.1282443 24.7081712 87.2450382 24.0466926 86.6221374 23.1128405L85.9603053 22.2178988 82.6900763 24.6303502 81.9503817 23.6575875 89.3473282 18.1712062zM86.6221374 21.7120623L87.3618321 22.6848249C88.140458 23.7354086 89.1916031 23.9688716 90.0480916 23.307393 91.021374 22.5680934 90.9045802 21.5564202 90.1648855 20.5447471 89.8145038 20.077821 89.5419847 19.766537 89.3473282 19.6498054L86.6221374 21.7120623z"/>
      <polygon points="93.279 34.669 91.839 31.323 88.724 32.646 90.321 36.381 89.386 36.77 87.323 31.946 95.927 28.288 97.912 32.918 96.978 33.307 95.46 29.767 92.734 30.934 94.175 34.28"/>
      <path fill-rule="nonzero" d="M98.7687023,35.7198444 C99.0022901,36.2645914 99.2748092,37.0038911 99.4694656,37.9377432 C99.7419847,39.1050584 99.6641221,40 99.3137405,40.6614786 C99.0022901,41.2451362 98.4183206,41.7120623 97.6007634,41.9066148 C96.7832061,42.1011673 96.0824427,42.0233463 95.4984733,41.6731518 C94.680916,41.2062257 94.0969466,40.2723735 93.8244275,39.1439689 C93.7465649,38.7937743 93.6687023,38.4824903 93.6687023,38.1712062 L90.0091603,39.0272374 L89.7366412,37.8599222 L98.7687023,35.7198444 Z M94.6419847,37.9766537 C94.6419847,38.2490272 94.680916,38.5603113 94.7977099,38.9883268 C95.1480916,40.3891051 96.0435115,41.0894942 97.289313,40.8171206 C98.4961832,40.5447471 98.8854962,39.5330739 98.5740458,38.2490272 C98.4572519,37.7431907 98.3015267,37.3540856 98.2236641,37.1595331 L94.6419847,37.9766537 Z"/>
      <polygon points="100.637 45.019 91.333 46.031 91.216 44.825 100.521 43.813"/>
      <path d="M93.0068702,47.7042802 C92.6564885,48.2490272 92.3839695,49.0272374 92.3450382,49.844358 C92.3061069,51.0894942 92.9679389,51.8287938 93.9022901,51.8287938 C94.7587786,51.8287938 95.3038168,51.3618677 95.8099237,50.077821 C96.3938931,48.5603113 97.1725191,47.6264591 98.4961832,47.6653696 C99.9366412,47.7042802 101.026718,48.9105058 100.987786,50.7392996 C100.987786,51.7120623 100.754198,52.3735409 100.481679,52.8015564 L99.5083969,52.4513619 C99.6641221,52.1400778 99.9755725,51.5175097 99.9755725,50.7003891 C100.014504,49.4163424 99.2358779,48.9105058 98.6129771,48.9105058 C97.7564885,48.9105058 97.289313,49.4552529 96.7832061,50.7392996 C96.1603053,52.2957198 95.3816794,53.1128405 93.9801527,53.07393 C92.5396947,53.0350195 91.2938931,51.9455253 91.3328244,49.766537 C91.3328244,48.8715953 91.6442748,47.8988327 91.9557252,47.3929961 L93.0068702,47.7042802 Z"/>
      <path fill-rule="nonzero" d="M94.5251908 63.07393C91.3717557 62.4513619 90.0870229 60.1945525 90.5541985 57.8599222 91.0603053 55.4474708 93.2793893 54.1245136 96.0435115 54.6692607 98.9633588 55.2529183 100.481679 57.4319066 100.014504 59.8832685 99.5083969 62.3735409 97.2503817 63.618677 94.5251908 63.07393zM95.8099237 55.9143969C93.8633588 55.5252918 91.8778626 56.2256809 91.4885496 58.0933852 91.0992366 59.9610895 92.6175573 61.3618677 94.7198473 61.7898833 96.5496183 62.1400778 98.6519084 61.5953307 99.0412214 59.6108949 99.4694656 57.6653696 97.8343511 56.3035019 95.8099237 55.9143969zM101.571756 62.1789883L100.325954 60.1167315 100.520611 59.1439689 101.844275 60.7392996 101.571756 62.1789883zM97.8732824 66.8871595C97.678626 67.5875486 97.4061069 68.4435798 97.0167939 69.2996109 96.3160305 70.8949416 95.4206107 71.8287938 94.4083969 72.2957198 93.3572519 72.7626459 92.189313 72.7626459 90.7877863 72.1400778 89.3862595 71.5175097 88.4519084 70.5836576 88.0236641 69.4163424 87.5954198 68.2490272 87.751145 66.770428 88.4908397 65.0972763 88.8412214 64.3190661 89.1916031 63.6575875 89.5030534 63.151751L97.8732824 66.8871595zM89.8534351 64.6303502C89.6587786 64.9027237 89.5030534 65.2918288 89.3083969 65.7198444 88.2572519 68.0933852 88.9969466 69.9610895 91.2938931 70.9727626 93.3183206 71.8677043 95.1091603 71.3229572 96.121374 68.9883268 96.3938931 68.4046693 96.510687 67.9766537 96.5885496 67.6264591L89.8534351 64.6303502z"/>
      <polygon points="92.734 77.121 84.87 72.101 85.532 71.089 93.435 76.109"/>
      <path fill-rule="nonzero" d="M82.3007634,82.8404669 C79.8870229,80.7392996 79.8870229,78.1322957 81.4442748,76.3424125 C83.0793893,74.4747082 85.648855,74.4357977 87.7900763,76.3035019 C90.0091603,78.2490272 90.2816794,80.9338521 88.6465649,82.8015564 C86.9725191,84.7081712 84.4030534,84.6692607 82.3007634,82.8404669 Z M86.9725191,77.2762646 C85.4541985,75.9533074 83.3908397,75.6031128 82.1450382,77.0428016 C80.8992366,78.4824903 81.4832061,80.4669261 83.1183206,81.8677043 C84.5198473,83.07393 86.6221374,83.618677 87.9458015,82.1400778 C89.2694656,80.5836576 88.529771,78.5992218 86.9725191,77.2762646 Z"/>
      <path d="M73.0740458,88.0933852 C73.4633588,88.7937743 73.1908397,89.688716 72.4900763,90.077821 C71.789313,90.4669261 70.8938931,90.1945525 70.5435115,89.4941634 C70.1541985,88.7548638 70.4267176,87.8988327 71.1274809,87.5097276 C71.789313,87.1206226 72.6847328,87.3540856 73.0740458,88.0933852 Z"/>
      <polygon points="55.594 94.514 59.176 93.969 58.669 90.623 54.66 91.245 54.504 90.233 59.721 89.416 61.161 98.638 56.178 99.416 56.022 98.405 59.837 97.821 59.37 94.903 55.789 95.447"/>
      <path d="M53.4526718 91.7898833C52.9076336 91.4396887 52.1290076 91.1673152 51.3114504 91.1284047 50.0656489 91.0894942 49.3259542 91.7509728 49.3259542 92.6848249 49.3259542 93.540856 49.7931298 94.0856031 51.0778626 94.5914397 52.5961832 95.1750973 53.5305344 95.9533074 53.4916031 97.2762646 53.4526718 98.7159533 52.2458015 99.8054475 50.4160305 99.766537 49.4427481 99.766537 48.780916 99.5330739 48.3526718 99.2607004L48.7030534 98.2879377C49.0145038 98.4435798 49.6374046 98.7548638 50.4549618 98.7548638 51.7396947 98.7937743 52.2458015 98.0155642 52.2458015 97.3929961 52.2458015 96.536965 51.7007634 96.0700389 50.4160305 95.5642023 48.8587786 94.9416342 48.0412214 94.1634241 48.0801527 92.7626459 48.119084 91.3229572 49.2091603 90.077821 51.389313 90.1167315 52.2847328 90.1167315 53.2580153 90.4280156 53.7641221 90.7392996L53.4526718 91.7898833zM40.3717557 89.3385214C40.8389313 89.1828794 41.7732824 89.1439689 42.9022901 89.3385214 45.510687 89.8054475 47.1458015 91.7898833 46.6007634 94.8249027 46.0946565 97.7042802 43.7977099 99.2996109 40.9167939 98.7937743 39.7877863 98.5992218 39.0870229 98.2101167 38.8145038 97.9766537L39.2816794 97.0428016C39.7099237 97.3540856 40.2938931 97.6264591 41.0725191 97.7431907 43.2137405 98.1322957 44.9267176 97.0038911 45.3549618 94.5914397 45.7442748 92.3346304 44.7320611 90.6614786 42.4740458 90.2723735 41.7343511 90.155642 40.9946565 90.155642 40.4496183 90.311284L40.3717557 89.3385214zM34.8435115 96.9649805L36.8679389 91.8287938C37.6465649 89.8832685 37.1015267 88.7159533 35.9335878 88.2490272 34.648855 87.7431907 33.480916 88.2490272 32.7022901 90.1945525L30.6778626 95.3307393 29.548855 94.8638132 31.5732824 89.8054475C32.6244275 87.1206226 34.4931298 86.614786 36.3618321 87.3540856 38.1526718 88.0544747 39.0870229 89.6108949 37.9969466 92.2957198L35.9725191 97.4319066 34.8435115 96.9649805z"/>
      <polygon points="25.617 91.401 28.031 92.918 27.485 93.774 21.646 90.078 22.191 89.222 24.605 90.739 29.043 83.696 30.094 84.358"/>
      <path fill-rule="nonzero" d="M23.8259542 83.5797665L26.5122137 82.0233463 27.4465649 82.8404669 18.8816794 87.7821012 17.7916031 86.8093385 21.5679389 77.6653696 22.5412214 78.5214008 21.3343511 81.4007782 23.8259542 83.5797665zM20.9061069 82.2957198L19.8160305 84.9416342C19.5824427 85.5252918 19.3099237 86.0311284 19.0374046 86.536965L19.0763359 86.536965C19.5435115 86.2256809 20.0496183 85.8754864 20.5557252 85.5642023L23.0473282 84.1245136 20.9061069 82.2957198zM13.7038168 82.6070039C13.2366412 82.2178988 12.6526718 81.5564202 12.1076336 80.8949416 11.3290076 79.8832685 10.978626 79.0661479 11.0564885 78.2879377 11.0954198 77.6653696 11.4458015 77.0428016 11.9908397 76.614786 12.9641221 75.8365759 14.0931298 75.9533074 14.9496183 76.536965L14.9885496 76.4980545C14.7549618 75.7587549 14.9885496 75.0194553 15.6114504 74.2412451 16.4679389 73.1906615 17.0129771 72.4513619 17.1687023 72.1011673L17.9473282 73.07393C17.8305344 73.3463035 17.3244275 74.0077821 16.5847328 74.9416342 15.7282443 75.9533074 15.6503817 76.6536965 16.3122137 77.5486381L17.0129771 78.4435798 20.2053435 75.9533074 20.9450382 76.8871595 13.7038168 82.6070039zM16.3122137 79.0272374L15.5335878 78.0544747C14.7549618 77.0428016 13.6648855 76.848249 12.8473282 77.5097276 11.9129771 78.2490272 12.029771 79.2607004 12.8083969 80.2723735 13.1587786 80.7392996 13.470229 81.0116732 13.6259542 81.1284047L16.3122137 79.0272374z"/>
      <polygon points="9.344 66.265 10.862 69.572 13.937 68.171 12.263 64.475 13.198 64.047 15.378 68.833 6.852 72.724 4.75 68.132 5.684 67.704 7.28 71.206 9.966 69.961 8.448 66.654"/>
      <path fill-rule="nonzero" d="M3.85419847,65.2918288 C3.62061069,64.7470817 3.3480916,64.0466926 3.07557252,63.1128405 C2.76412214,61.9455253 2.80305344,61.0505837 3.15343511,60.3891051 C3.4648855,59.766537 4.00992366,59.2996109 4.82748092,59.1050584 C5.64503817,58.8715953 6.34580153,58.9494163 6.92977099,59.2996109 C7.74732824,59.7276265 8.37022901,60.6614786 8.64274809,61.7898833 C8.72061069,62.1400778 8.79847328,62.4513619 8.79847328,62.7626459 L12.419084,61.7898833 L12.7305344,62.9571984 L3.85419847,65.2918288 Z M7.90305344,62.9571984 C7.90305344,62.6848249 7.82519084,62.3735409 7.74732824,61.9844358 C7.35801527,60.5836576 6.46259542,59.8832685 5.21679389,60.233463 C4.00992366,60.5447471 3.65954198,61.5564202 4.00992366,62.8404669 C4.12671756,63.3463035 4.28244275,63.7354086 4.39923664,63.9299611 L7.90305344,62.9571984 Z"/>
      <polygon points="1.752 56.109 11.018 54.864 11.173 56.07 1.908 57.315"/>
      <path d="M9.30458015,53.1906615 C9.61603053,52.6459144 9.88854962,51.8287938 9.88854962,51.0116732 C9.84961832,49.766537 9.18778626,49.0661479 8.25343511,49.0661479 C7.39694656,49.0661479 6.89083969,49.5719844 6.42366412,50.8560311 C5.91755725,52.3735409 5.1389313,53.3463035 3.81526718,53.385214 C2.37480916,53.4241245 1.24580153,52.2178988 1.20687023,50.3891051 C1.20687023,49.4163424 1.40152672,48.7159533 1.6351145,48.3268482 L2.60839695,48.6381323 C2.45267176,48.9494163 2.18015267,49.5719844 2.18015267,50.4280156 C2.21908397,51.7120623 2.95877863,52.1789883 3.62061069,52.1789883 C4.47709924,52.1789883 4.90534351,51.5953307 5.41145038,50.2723735 C5.99541985,48.6770428 6.7351145,47.8599222 8.13664122,47.8210117 C9.57709924,47.7821012 10.8618321,48.8326848 10.9007634,51.0505837 C10.9007634,51.9455253 10.6671756,52.9571984 10.3557252,53.463035 L9.30458015,53.1906615 Z"/>
      <path fill-rule="nonzero" d="M.350381679 38.9494163L1.6351145 40.9727626 1.47938931 41.9455253.116793893 40.3891051.350381679 38.9494163zM7.35801527 37.8988327C10.5114504 38.4435798 11.8740458 40.6614786 11.4458015 43.0350195 11.0175573 45.4863813 8.83740458 46.848249 6.03435115 46.3424125 3.11450382 45.8365759 1.51832061 43.6964981 1.94656489 41.2062257 2.41374046 38.7159533 4.63282443 37.4319066 7.35801527 37.8988327zM6.26793893 45.0583658C8.25343511 45.4085603 10.2 44.6303502 10.5114504 42.7626459 10.8229008 40.8949416 9.30458015 39.4941634 7.20229008 39.1439689 5.37251908 38.8326848 3.27022901 39.4552529 2.95877863 41.4396887 2.60839695 43.4241245 4.24351145 44.7081712 6.26793893 45.0583658zM3.93206107 34.1634241C4.12671756 33.4241245 4.36030534 32.6070039 4.74961832 31.7120623 5.41145038 30.1167315 6.26793893 29.1439689 7.28015267 28.6770428 8.29236641 28.2101167 9.49923664 28.1712062 10.9007634 28.7548638 12.3022901 29.3385214 13.2755725 30.2723735 13.7427481 31.4007782 14.2099237 32.5291829 14.0931298 34.0466926 13.3923664 35.7198444 13.0419847 36.4980545 12.7305344 37.1595331 12.4580153 37.7042802L3.93206107 34.1634241zM12.029771 36.2256809C12.1854962 35.9533074 12.3801527 35.5642023 12.5748092 35.1361868 13.5870229 32.7626459 12.7694656 30.8949416 10.4335878 29.922179 8.40916031 29.0661479 6.61832061 29.688716 5.64503817 32.0233463 5.41145038 32.6070039 5.25572519 33.07393 5.21679389 33.385214L12.029771 36.2256809z"/>
      <polygon points="8.798 23.774 16.818 28.599 16.195 29.65 8.176 24.786"/>
      <path fill-rule="nonzero" d="M19.0763359,17.8210117 C21.5679389,19.8832685 21.6068702,22.4902724 20.0885496,24.3190661 C18.4923664,26.2256809 15.9229008,26.3424125 13.7427481,24.5136187 C11.4458015,22.6070039 11.1343511,19.9610895 12.7305344,18.0155642 C14.4045802,16.0700389 16.9351145,16.0700389 19.0763359,17.8210117 Z M14.5603053,23.5019455 C16.1175573,24.7859922 18.180916,25.0972763 19.3877863,23.618677 C20.5946565,22.1400778 19.9328244,20.1945525 18.2977099,18.8326848 C16.8572519,17.6264591 14.7549618,17.1595331 13.470229,18.7159533 C12.1854962,20.233463 13.0030534,22.1789883 14.5603053,23.5019455 Z"/>
      <path d="M28.2251908,12.3346304 C27.7969466,11.6342412 28.0694656,10.7392996 28.770229,10.3501946 C29.4709924,9.96108949 30.3664122,10.1945525 30.7557252,10.8949416 C31.1450382,11.5953307 30.9114504,12.4902724 30.210687,12.8793774 C29.5099237,13.2684825 28.6145038,13.0350195 28.2251908,12.3346304 Z"/>
    </g>
    <path fill="#000000" d="M74.6818516,60.6469364 L53.9735489,48.3717877 C52.2160176,47.3129091 50,48.6463118 50,50.7248514 L50,75.2751486 C50,77.3536882 52.2160176,78.6870909 53.9735489,77.6282123 L74.6818516,65.3530636 C76.4393828,64.294185 76.4393828,61.705815 74.6818516,60.6469364 Z"/>
  </g>
</svg>
