<svg xmlns="http://www.w3.org/2000/svg" width="29" height="26" viewBox="0 0 29 26">
  <path fill="#FFFFFF" fill-rule="evenodd" d="M13.6523438,14.8789062 C13.5807288,14.8789062 13.5107425,14.864258 13.4423828,14.8349609 C13.3740231,14.8056639 13.3138023,14.7584639 13.2617188,14.6933594 C13.1770829,14.5891922 13.141276,14.4687507 13.1542969,14.3320312 C13.1673178,14.1953118 13.2291661,14.0813807 13.3398438,13.9902344 C13.6002617,13.7753896 13.8346344,13.5361341 14.0429688,13.2724609 C14.2513031,13.0087877 14.425455,12.7288426 14.5654297,12.4326172 C14.7054043,12.1363917 14.8128251,11.8255225 14.8876953,11.5 C14.9625655,11.1744775 15,10.8424496 15,10.5039063 C15,10.1588524 14.9625655,9.82356934 14.8876953,9.49804688 C14.8128251,9.17252441 14.7054043,8.86165513 14.5654297,8.56542969 C14.425455,8.26920425 14.2513031,7.98925913 14.0429688,7.72558594 C13.8346344,7.46191274 13.6002617,7.22265732 13.3398438,7.0078125 C13.2291661,6.92317666 13.1673178,6.8108731 13.1542969,6.67089844 C13.141276,6.53092378 13.1770829,6.40885469 13.2617188,6.3046875 C13.352865,6.19400986 13.4667962,6.13216152 13.6035156,6.11914062 C13.7402351,6.10611973 13.8606766,6.14518184 13.9648438,6.23632812 C14.2903662,6.49674609 14.5784493,6.78808433 14.8291016,7.11035156 C15.0797539,7.4326188 15.2929679,7.77441226 15.46875,8.13574219 C15.6445321,8.49707212 15.7763667,8.87792769 15.8642578,9.27832031 C15.9521489,9.67871294 15.9960938,10.0872375 15.9960938,10.5039063 C15.9960938,10.9140646 15.9521489,11.3193339 15.8642578,11.7197266 C15.7763667,12.1201192 15.6445321,12.5026023 15.46875,12.8671875 C15.2929679,13.2317727 15.0797539,13.5735661 14.8291016,13.8925781 C14.5784493,14.2115901 14.2903662,14.504556 13.9648438,14.7714844 C13.9192706,14.8040366 13.870443,14.830078 13.8183594,14.8496094 C13.7662758,14.8691407 13.7109378,14.8789062 13.6523438,14.8789062 Z M15.546875,17.2128906 C15.4752601,17.2128906 15.4052738,17.1966147 15.3369141,17.1640625 C15.2685543,17.1315103 15.2083336,17.0859378 15.15625,17.0273438 C15.0716142,16.9166661 15.0358072,16.7929694 15.0488281,16.65625 C15.061849,16.5195306 15.1204422,16.4088546 15.2246094,16.3242188 C15.6673199,15.966144 16.0611962,15.567385 16.40625,15.1279297 C16.7513038,14.6884744 17.0410145,14.2197291 17.2753906,13.7216797 C17.5097668,13.2236303 17.6888015,12.7044298 17.8125,12.1640625 C17.9361985,11.6236952 17.9980469,11.0703153 17.9980469,10.5039062 C17.9980469,9.93749717 17.9361985,9.3824897 17.8125,8.83886719 C17.6888015,8.29524468 17.5097668,7.77441655 17.2753906,7.27636719 C17.0410145,6.77831782 16.7513038,6.3112001 16.40625,5.875 C16.0611962,5.4387999 15.6673199,5.04166846 15.2246094,4.68359375 C15.1204422,4.59244746 15.061849,4.47851631 15.0488281,4.34179688 C15.0358072,4.20507744 15.0716142,4.08138076 15.15625,3.97070312 C15.2408858,3.86653594 15.3531894,3.80794277 15.4931641,3.79492188 C15.6331387,3.78190098 15.7552078,3.81770791 15.859375,3.90234375 C16.3606796,4.3059916 16.8050111,4.75683345 17.1923828,5.25488281 C17.5797545,5.75293218 17.9085273,6.28352583 18.1787109,6.84667969 C18.4488946,7.40983354 18.6539707,7.99902036 18.7939453,8.61425781 C18.93392,9.22949526 19.0039062,9.85937178 19.0039062,10.5039062 C19.0039062,11.1419303 18.93392,11.7685516 18.7939453,12.3837891 C18.6539707,12.9990265 18.4488946,13.5882133 18.1787109,14.1513672 C17.9085273,14.714521 17.5797545,15.2451147 17.1923828,15.7431641 C16.8050111,16.2412134 16.3606796,16.6920553 15.859375,17.0957031 C15.8138019,17.1347658 15.7633466,17.1640624 15.7080078,17.1835938 C15.652669,17.2031251 15.5989586,17.2128906 15.546875,17.2128906 Z M11.7578125,12.5546875 C11.6861976,12.5546875 11.6162113,12.5384116 11.5478516,12.5058594 C11.4794918,12.4733071 11.4225263,12.4277347 11.3769531,12.3691406 C11.2858068,12.258463 11.2483723,12.1347663 11.2646484,11.9980469 C11.2809246,11.8613274 11.3411453,11.7506515 11.4453125,11.6660156 C11.6210946,11.5227857 11.757812,11.3486338 11.8554688,11.1435547 C11.9531255,10.9384755 12.0019531,10.7252615 12.0019531,10.5039062 C12.0019531,10.2760405 11.9531255,10.0595713 11.8554688,9.85449219 C11.757812,9.64941304 11.6210946,9.47526113 11.4453125,9.33203125 C11.3411453,9.24739541 11.2809246,9.13671943 11.2646484,9 C11.2483723,8.86328057 11.2858068,8.73958389 11.3769531,8.62890625 C11.461589,8.52473906 11.5722649,8.4661459 11.7089844,8.453125 C11.8457038,8.4401041 11.9694005,8.47591104 12.0800781,8.56054688 C12.3730483,8.8014335 12.5992831,9.09114414 12.7587891,9.4296875 C12.9182951,9.76823086 12.9980469,10.1263002 12.9980469,10.5039062 C12.9980469,10.8815123 12.9182951,11.2395816 12.7587891,11.578125 C12.5992831,11.9166684 12.3730483,12.2031238 12.0800781,12.4375 C12.034505,12.4765627 11.9840498,12.5058593 11.9287109,12.5253906 C11.8733721,12.544922 11.8164065,12.5546875 11.7578125,12.5546875 Z M8.15429688,3.20898438 C8.36263125,3.20898438 8.55631421,3.29199136 8.73535156,3.45800781 C8.91438892,3.62402427 9.00390625,3.88932109 9.00390625,4.25390625 L9.00390625,16.7539062 C9.00390625,16.8906257 8.98763037,17.01595 8.95507812,17.1298828 C8.92252588,17.2438157 8.87695342,17.3430985 8.81835938,17.4277344 C8.74023398,17.5449225 8.64257871,17.6344398 8.52539062,17.6962891 C8.40820254,17.7581383 8.28450586,17.7890625 8.15429688,17.7890625 C8.03059834,17.7890625 7.90690166,17.7630211 7.78320312,17.7109375 C7.65950459,17.6588539 7.53580791,17.5839849 7.41210938,17.4863281 L3.3203125,14 L1.50390625,14 C1.0872375,14 0.73242334,13.8535171 0.439453125,13.5605469 C0.14648291,13.2675767 0,12.9127625 0,12.4960938 L0,8.50195312 C0,8.08528437 0.14648291,7.73047021 0.439453125,7.4375 C0.73242334,7.14452979 1.0872375,6.99804688 1.50390625,6.99804688 L3.3203125,6.99804688 L7.41210938,3.52148438 C7.53580791,3.41731719 7.65950459,3.33919297 7.78320312,3.28710938 C7.90690166,3.23502578 8.03059834,3.20898438 8.15429688,3.20898438 Z M0.99609375,12.4960938 C0.99609375,12.6393236 1.04492139,12.7597651 1.14257812,12.8574219 C1.24023486,12.9550786 1.36067637,13.0039062 1.50390625,13.0039062 L2.99804688,13.0039062 L2.99804688,8.00390625 L1.50390625,8.00390625 C1.36067637,8.00390625 1.24023486,8.05273389 1.14257812,8.15039062 C1.04492139,8.24804736 0.99609375,8.36523369 0.99609375,8.50195312 L0.99609375,12.4960938 Z M7.99804688,4.33203125 L4.00390625,7.73046875 L4.00390625,13.2675781 L7.99804688,16.6660156 L7.99804688,4.33203125 Z" transform="translate(5 3)"/>
</svg>
