<svg xmlns="http://www.w3.org/2000/svg" width="36" height="36" viewBox="0 0 36 36">
  <path fill="#FFFFFF" fill-rule="evenodd" d="M18,36 C8.0588745,36 -1.21743675e-15,27.9411255 0,18 C1.21743675e-15,8.0588745 8.0588745,-6.08718376e-16 18,0 C27.9411255,6.08718376e-16 36,8.0588745 36,18 C36,27.9411255 27.9411255,36 18,36 Z M18,8.5 C12.7532949,8.5 8.5,12.7532949 8.5,18 C8.5,23.2467051 12.7532949,27.5 18,27.5 C23.2467051,27.5 27.5,23.2467051 27.5,18 C27.4944883,12.7555796 23.2444204,8.50551174 18,8.5 Z M17.34,9.94 L17.34,12.94 L15,12.94 C15.58,11.39 16.36,10.28 17.34,9.94 Z M18.66,9.94 C19.66,10.28 20.42,11.39 20.96,12.94 L18.66,12.94 L18.66,9.94 Z M14.94,10.42 C14.4177388,11.1896588 14.0038578,12.0275154 13.71,12.91 L11.6,12.91 C12.4775224,11.8033278 13.6288422,10.9450086 14.94,10.42 Z M21.06,10.42 C22.3711578,10.9450086 23.5224776,11.8033278 24.4,12.91 L22.29,12.91 C21.9961422,12.0275154 21.5822612,11.1896588 21.06,10.42 Z M10.74,14.24 L13.33,14.24 C13.1000834,15.2551811 12.9661603,16.2897371 12.93,17.33 L9.85,17.33 C9.94111939,16.2515944 10.2435294,15.2016539 10.74,14.24 Z M14.65,14.24 L17.34,14.24 L17.34,17.33 L14.26,17.33 C14.2929919,16.2900631 14.4235651,15.2555218 14.65,14.24 Z M18.65,14.24 L21.34,14.24 C21.5664349,15.2555218 21.6970081,16.2900631 21.73,17.33 L18.66,17.33 L18.65,14.24 Z M22.65,14.24 L25.24,14.24 C25.7364706,15.2016539 26.0388806,16.2515944 26.13,17.33 L23.07,17.33 C23.0338397,16.2897371 22.8999166,15.2551811 22.67,14.24 L22.65,14.24 Z M9.85,18.66 L12.93,18.66 C12.9661603,19.7002629 13.1000834,20.7348189 13.33,21.75 L10.74,21.75 C10.2403142,20.7896277 9.93771502,19.7390306 9.85,18.66 Z M14.26,18.66 L17.34,18.66 L17.34,21.75 L14.65,21.75 C14.4242001,20.7343677 14.2936344,19.6998862 14.26,18.66 Z M18.66,18.66 L21.74,18.66 C21.7063656,19.6998862 21.5757999,20.7343677 21.35,21.75 L18.66,21.75 L18.66,18.66 Z M23.07,18.66 L26.15,18.66 C26.062285,19.7390306 25.7596858,20.7896277 25.26,21.75 L22.67,21.75 C22.8999166,20.7348189 23.0338397,19.7002629 23.07,18.66 Z M11.59,23.07 L13.71,23.07 C13.9935875,23.9629018 14.4081017,24.8087804 14.94,25.58 C13.6240782,25.0488586 12.4694185,24.1837255 11.59,23.07 Z M15.03,23.07 L17.34,23.07 L17.34,26.07 C16.1618922,25.4566142 15.3080918,24.3619982 15,23.07 L15.03,23.07 Z M18.66,23.07 L21,23.07 C20.6987415,24.3563716 19.8566583,25.4499862 18.69,26.07 L18.66,23.07 Z M22.29,23.07 L24.41,23.07 C23.5305815,24.1837255 22.3759218,25.0488586 21.06,25.58 C21.5918983,24.8087804 22.0064125,23.9629018 22.29,23.07 Z"/>
</svg>
