<svg id="Layer_1" xmlns="http://www.w3.org/2000/svg" viewBox="0 0 800 200">
  <style>
    .st0{fill:#fff}
  </style>
  <path class="st0" d="M358.6 101.5h-10.8v-6.4h10.8V83.9h6.6v11.3H376v6.4h-10.8v11.3h-6.6v-11.4zM656 180.1l44.8-82.8-42-78.4h40.5l14.1 30.4c1.8 3.8 3.6 7.8 5.4 12 1.8 4.2 3.9 8.9 6.2 14h1c1.8-5.1 3.6-9.8 5.3-14 1.7-4.2 3.4-8.2 5.1-12l12.9-30.4H788L746.2 99l44.5 81.1h-40.5l-16.1-32.9c-2-4.3-3.9-8.5-5.8-12.7-1.9-4.2-4-8.8-6.3-13.7h-1c-1.8 4.9-3.6 9.5-5.4 13.7-1.8 4.2-3.6 8.4-5.4 12.7L695 180.1h-39zM559.6 126.3c-.8-4.9-1.3-10.6-1.3-17.2V18.9h-36.6v57.8l37.9 49.6zM614.7 18.9v90.2c0 15.8-2.5 26.9-7.4 33.1-4.9 6.3-12 9.4-21 9.4-3 0-5.7-.4-8.2-1l23.7 31.1c13.3-2.4 23.9-8.1 31.8-17.2 10.8-12.4 16.2-32.1 16.2-59.1V18.9h-35.1zM418.6 52V18.5h8c1.9 0 3.6.2 5.1.5 1.5.3 2.7.8 3.8 1.6 1 .7 1.8 1.7 2.3 2.8.5 1.2.8 2.6.8 4.2 0 3.2-1 5.6-3 7.2-2 1.6-4.9 2.4-8.7 2.4h-6.6V52h-1.7zm1.6-16.2h6c3.6 0 6.3-.6 8-1.9 1.7-1.3 2.6-3.3 2.6-6.2 0-2.9-.9-5-2.7-6.1-1.8-1.1-4.5-1.6-8.2-1.6h-5.8v15.8zM439 52l12-33.5h1.4l12 33.5h-1.7l-4.2-12h-13.6l-4.2 12H439zm8.7-20.1l-2.4 6.7h12.6l-2.3-6.7c-.7-2-1.4-4-2-5.8-.6-1.8-1.2-3.8-1.9-5.9h-.2c-.6 2.1-1.2 4.1-1.9 5.9-.5 1.9-1.2 3.8-1.9 5.8zM442.3 95V61.5h1.7l14.8 24.6 3.9 6.6h.2c-.1-1.6-.1-3.2-.1-4.7V61.5h1.5V95h-1.7l-14.8-24.6-3.9-6.6h-.2c.1 1.6.1 3.1.1 4.6V95h-1.5zM485.8 95.6c-2 0-3.8-.4-5.5-1.2-1.7-.8-3.1-2-4.3-3.5-1.2-1.5-2.1-3.4-2.8-5.5-.7-2.1-1-4.5-1-7.2s.3-5 1-7.2c.7-2.1 1.6-3.9 2.8-5.4 1.2-1.5 2.6-2.6 4.3-3.4 1.7-.8 3.5-1.2 5.5-1.2s3.8.4 5.5 1.2c1.7.8 3.1 2 4.3 3.4 1.2 1.5 2.1 3.3 2.8 5.4.7 2.1 1 4.5 1 7.2s-.3 5-1 7.2c-.7 2.1-1.6 4-2.8 5.5-1.2 1.5-2.6 2.7-4.3 3.5-1.7.8-3.6 1.2-5.5 1.2zm0-1.5c1.8 0 3.4-.4 4.8-1.1 1.5-.8 2.7-1.8 3.8-3.2 1-1.4 1.8-3.1 2.4-5 .6-2 .9-4.1.9-6.5 0-2.4-.3-4.6-.9-6.5-.6-1.9-1.4-3.6-2.4-5s-2.3-2.4-3.8-3.1c-1.5-.7-3.1-1.1-4.8-1.1-1.8 0-3.4.4-4.9 1.1-1.5.7-2.7 1.8-3.7 3.1-1 1.4-1.8 3-2.4 5-.6 1.9-.9 4.1-.9 6.5 0 2.4.3 4.6.9 6.5.6 2 1.4 3.6 2.4 5s2.3 2.5 3.7 3.2c1.5.7 3.1 1.1 4.9 1.1z"/>
  <g>
    <path class="st0" d="M481.3 138.7v-33.5h9.2c1.7 0 3.1.2 4.5.5 1.3.3 2.4.8 3.4 1.5.9.7 1.6 1.6 2.2 2.7s.8 2.4.8 4c0 2.7-.8 4.8-2.4 6.3-1.6 1.5-3.8 2.4-6.6 2.7l9.5 15.9H500l-9.4-15.8h-7.5v15.8h-1.8zm1.6-17.3h7c3.1 0 5.5-.6 7.2-1.9 1.7-1.2 2.5-3.2 2.5-5.8 0-2.6-.8-4.5-2.5-5.6-1.7-1.1-4-1.6-7.2-1.6h-7v14.9zM503.8 138.7l12-33.5h1.4l12 33.5h-1.7l-4.2-12h-13.6l-4.2 12h-1.7zm8.7-20.1l-2.4 6.7h12.6l-2.3-6.7c-.7-2-1.4-4-2-5.8-.6-1.8-1.2-3.8-1.8-5.9h-.2c-.6 2.1-1.2 4.1-1.9 5.9-.6 1.8-1.3 3.8-2 5.8z"/>
  </g>
  <g>
    <path class="st0" d="M507.3 183.1v-33.5h2.6l7.2 20.3 2.7 7.6h.2c.5-1.3.9-2.6 1.3-3.8.4-1.3.8-2.5 1.3-3.8l7.2-20.3h2.6v33.5H531v-23.3-4.3c0-1.6.1-3 .2-4.4h-.2l-2.6 7.4-7.6 20.9h-1.7l-7.6-20.9-2.6-7.4h-.2c.1 1.4.1 2.9.1 4.4v27.6h-1.5zM538.2 183.1l12-33.5h1.4l12 33.5h-1.7l-4.2-12H544l-4.2 12h-1.6zm8.7-20.1l-2.4 6.7h12.6l-2.3-6.7c-.7-2-1.4-4-2-5.8-.6-1.8-1.2-3.8-1.8-5.9h-.2c-.6 2.1-1.2 4.1-1.8 5.9-.7 1.8-1.4 3.8-2.1 5.8z"/>
  </g>
  <path class="st0" d="M610.6 195.3l-.7-.9L467.8 6l1.7-1.3.7.9L612.3 194z"/>
  <g>
    <path class="st0" d="M73.3 19.7c-.5 0-.9.1-1.4.4-.5.3-1 .7-1.4 1.2L59.1 34.9c1.1.1 2.2.6 3.1 1.3.8.7 1.5 1.6 1.8 2.6l6-7.1v35c1.2-.6 2-.9 3.1-.9s1.9.3 3.1.9V22.8c.1-1.7-1.1-3.1-2.9-3.1zM15.5 66.8V31.3l6.6 7.9c.3-1.1 1-2.1 1.9-2.9.8-.7 1.8-1.1 2.9-1.3L15.2 21c-.4-.5-.9-1-1.5-1.2-.3-.1-.8-.2-1.1-.2-1.7 0-3.2 1.4-3.2 3.2v44c1.1-.6 1.9-.9 3.1-.9 1-.1 2.2.3 3 .9zM73 68.5c-1.7 0-3 1.4-3 3.1v.1c0 15-12 27.2-27 27.2h-.5c-15 0-27.1-12.2-27.1-27.2v-.1c0-1.7-1.3-3.1-3-3.1-1.6 0-3.2 1.2-3.2 3.1 0 18.5 15 33.5 33.5 33.5S76.2 90 76.2 71.6c0-2.1-1.6-3.1-3.2-3.1z"/>
    <path class="st0" d="M24.4 42.1l14.3 17.2-13.9 16.6c-1.1 1.4-.9 3.4.4 4.5 1.4 1.1 3.4.9 4.5-.4l13.1-15.8L55.9 80c1.1 1.4 3.1 1.5 4.5.4s1.5-3.1.4-4.5L46.9 59.3l14.3-17.2c.7-1.3.4-2.9-.8-3.9-.6-.5-1.3-.7-2-.7-.9 0-1.8.4-2.4 1.1L42.8 54.4 29.7 38.6c-.6-.8-1.5-1.1-2.4-1.1-.7 0-1.5.2-2.1.7-1.1 1-1.4 2.6-.8 3.9z"/>
  </g>
  <g>
    <path class="st0" d="M140.6 25.8l-14.2 19.7c-.3.5-.8.7-1.3.7h-.1c-.6 0-1-.2-1.3-.7l-14.2-19.7v36.5c0 .8-.7 1.5-1.5 1.5-.9 0-1.6-.7-1.6-1.5V21.2c0-.5.3-1 .6-1.2 0-.1.1-.1.1-.1.7-.4 1.6-.3 2.2.4l15.8 21.9 15.7-21.9c.4-.7 1.5-.8 2.2-.4.2.2.3.3.4.5.1.3.3.6.3.8v41.1c0 .8-.7 1.5-1.5 1.5-.9 0-1.5-.7-1.5-1.5V25.8zM172.7 18.8c11.9 0 21.2 10.1 21.3 22.5-.1 12.4-9.4 22.5-21.3 22.5-12 0-21.4-10.1-21.4-22.5.1-12.4 9.4-22.5 21.4-22.5zm0 42c9.8 0 18-8.6 18.1-19.4-.1-11-8.3-19.4-18.1-19.4-10.1 0-18.3 8.4-18.3 19.4 0 10.8 8.3 19.4 18.3 19.4zM215.5 63c-.1 0-.1-.1-.1-.1l-.1-.1-17.2-40.9c-.3-.8.1-1.7.8-2 .8-.4 1.7 0 2 .8l15.9 37.8 15.9-37.8c.3-.8 1.2-1.1 2-.8.8.3 1.1 1.3.8 2l-17.2 40.6c-.1.6-.4 1.1-.9 1.3h-.1c-.2.1-.4.1-.6.1-.2 0-.4 0-.6-.1-.1 0-.1-.1-.1-.1-.2-.1-.4-.3-.5-.7zM241.9 21c0-.8.7-1.5 1.5-1.5.9 0 1.6.7 1.6 1.5v41.4c0 .8-.7 1.5-1.6 1.5-.8 0-1.5-.7-1.5-1.5V21zM140.6 85.2l-14.2 19.7c-.3.5-.8.7-1.3.7h-.1c-.6 0-1-.2-1.3-.7l-14.2-19.7v36.5c0 .8-.7 1.5-1.5 1.5-.9 0-1.6-.7-1.6-1.5V80.6c0-.5.3-1 .6-1.2 0-.1.1-.1.1-.1.7-.4 1.6-.3 2.2.4l15.8 21.9 15.7-21.9c.4-.7 1.5-.8 2.2-.4.2.2.3.3.4.5.1.3.3.6.3.8v41.1c0 .8-.7 1.5-1.5 1.5-.9 0-1.5-.7-1.5-1.5V85.2zM152.9 80.3c0-.8.7-1.5 1.5-1.5h22.8c.9 0 1.5.7 1.5 1.5 0 .9-.6 1.6-1.5 1.6h-21.3v17.6h18.6c.8 0 1.5.7 1.5 1.6 0 .8-.7 1.5-1.5 1.5h-18.6v17.5h21.3c.9 0 1.5.7 1.5 1.6 0 .8-.6 1.5-1.5 1.5h-23c-.8-.1-1.4-.7-1.4-1.5V80.3zM190 85.3v36.4c0 .8-.7 1.5-1.5 1.5s-1.5-.7-1.5-1.5V81c-.2-.6 0-1.3.6-1.7.7-.4 1.7-.3 2.2.4l26.9 37.3V80.8c0-.8.7-1.5 1.5-1.5.9 0 1.6.7 1.6 1.5v40.9c0 .8-.7 1.5-1.6 1.5-.5 0-.9-.2-1.2-.6-.1-.1-.2-.1-.3-.3l-26.7-37zM242.7 81.9h-13.4c-.8 0-1.5-.7-1.5-1.6 0-.8.7-1.5 1.5-1.5h29.8c.8 0 1.5.7 1.5 1.5 0 .9-.7 1.6-1.5 1.6h-13.4v39.8c0 .8-.7 1.5-1.5 1.5s-1.5-.7-1.5-1.5V81.9zM284.6 78.2c11.9 0 21.2 10.1 21.3 22.5-.1 12.4-9.4 22.5-21.3 22.5-12 0-21.4-10.1-21.4-22.5s9.4-22.5 21.4-22.5zm0 41.9c9.8 0 18-8.6 18.1-19.4-.1-11-8.3-19.4-18.1-19.4-10.1 0-18.3 8.4-18.3 19.4-.1 10.9 8.2 19.4 18.3 19.4zM124.8 182.6c-10.2 0-18.3-8.2-18.3-18.3v-22.6c0-2 1.5-3.5 3.5-3.5 1.9 0 3.6 1.5 3.6 3.5v22.6c0 6.2 5.1 11.3 11.3 11.3 6.3 0 11.3-5.1 11.3-11.3v-22.6c0-2 1.6-3.5 3.6-3.5s3.5 1.5 3.5 3.5v22.6c-.2 10-8.4 18.3-18.5 18.3zM185.4 144.2l-12.1 16.4 12.1 16.5c1.1 1.5.8 3.7-.8 4.8-.6.4-1.3.7-2 .7-1.1 0-2.2-.6-2.9-1.5L169 166.4l-10.7 14.7c-.7.9-1.7 1.5-2.8 1.5-.8 0-1.5-.3-2-.7-1.6-1.1-1.9-3.3-.8-4.8l12.1-16.5-12.1-16.4c-1.1-1.6-.8-3.7.8-4.8 1.5-1.2 3.7-.9 4.8.8l10.7 14.6 10.7-14.6c1.2-1.6 3.3-2 4.9-.8 1.6 1 1.8 3.2.8 4.8z"/>
  </g>
</svg>
