<svg xmlns="http://www.w3.org/2000/svg" width="29" height="26"><path fill="#FFF" fill-rule="evenodd" d="M18.652 17.879a.528.528 0 0 1-.21-.044.466.466 0 0 1-.18-.142.48.48 0 0 1-.108-.361.489.489 0 0 1 .186-.342c.26-.215.495-.454.703-.718a4.32 4.32 0 0 0 .522-.84c.14-.296.248-.606.323-.932a4.473 4.473 0 0 0-.322-2.935 4.348 4.348 0 0 0-.523-.84 4.728 4.728 0 0 0-.703-.717.46.46 0 0 1-.186-.337.487.487 0 0 1 .108-.366.489.489 0 0 1 .703-.069c.325.26.613.552.864.874.25.323.464.664.64 1.026.176.361.307.742.395 1.142a5.7 5.7 0 0 1 0 2.442 5.2 5.2 0 0 1-.395 1.147 5.571 5.571 0 0 1-1.504 1.904.634.634 0 0 1-.147.079.469.469 0 0 1-.166.029zm1.895 2.334a.483.483 0 0 1-.21-.049.565.565 0 0 1-.18-.137.511.511 0 0 1-.108-.37.468.468 0 0 1 .176-.333 7.464 7.464 0 0 0 1.181-1.196c.345-.44.635-.908.87-1.406a7.663 7.663 0 0 0 .537-1.558c.123-.54.185-1.094.185-1.66a7.48 7.48 0 0 0-.186-1.665 7.638 7.638 0 0 0-.537-1.563 7.18 7.18 0 0 0-.869-1.401 7.57 7.57 0 0 0-1.181-1.191.502.502 0 0 1-.176-.342.511.511 0 0 1 .107-.371.472.472 0 0 1 .337-.176.487.487 0 0 1 .366.107c.502.404.946.855 1.333 1.353.388.498.717 1.029.987 1.592a8.36 8.36 0 0 1 .615 1.767c.14.615.21 1.245.21 1.89a8.447 8.447 0 0 1-1.812 5.24 8.182 8.182 0 0 1-1.333 1.352.473.473 0 0 1-.312.117zm-3.79-4.658a.483.483 0 0 1-.38-.186.475.475 0 0 1-.112-.371.486.486 0 0 1 .18-.332c.176-.143.313-.317.41-.522a1.492 1.492 0 0 0 0-1.29 1.495 1.495 0 0 0-.41-.522.486.486 0 0 1-.18-.332.475.475 0 0 1 .112-.371.468.468 0 0 1 .332-.176.511.511 0 0 1 .371.108 2.49 2.49 0 0 1 .918 1.943 2.48 2.48 0 0 1-.918 1.934.51.51 0 0 1-.322.117zm-3.603-9.346a.84.84 0 0 1 .581.249c.18.166.269.431.269.796v12.5c0 .137-.016.262-.049.376a1.003 1.003 0 0 1-.137.298.796.796 0 0 1-.664.361.95.95 0 0 1-.37-.078 1.613 1.613 0 0 1-.372-.225L8.32 17H6.504a1.45 1.45 0 0 1-1.065-.44A1.45 1.45 0 0 1 5 15.497v-3.994c0-.417.146-.772.44-1.065a1.45 1.45 0 0 1 1.064-.439H8.32l4.092-3.477a1.48 1.48 0 0 1 .371-.234.95.95 0 0 1 .371-.078zm-7.158 9.287c0 .143.049.264.147.361a.491.491 0 0 0 .36.147h1.495v-5H6.504a.491.491 0 0 0-.361.146.48.48 0 0 0-.147.352v3.994zm7.002-8.164L9.004 10.73v5.538l3.994 3.398V7.332z"/></svg>